<svg width="29" height="32" viewBox="0 0 29 32" fill="none" xmlns="http://www.w3.org/2000/svg">
<path fill-rule="evenodd" clip-rule="evenodd" d="M1.88822 1.8752C-1.92059e-07 3.7488 0 6.7664 0 12.8V19.2C0 25.2336 -1.92059e-07 28.2512 1.88822 30.1248C3.77644 31.9984 6.81339 32 12.8889 32H16.1111C22.1866 32 25.2252 32 27.1118 30.1248C28.9984 28.2496 29 25.2336 29 19.2V12.8C29 6.7664 29 3.7488 27.1118 1.8752C25.2236 0.00159988 22.1866 0 16.1111 0H12.8889C6.81339 0 3.77483 -1.90735e-07 1.88822 1.8752ZM8.05556 11.6C7.73509 11.6 7.42774 11.7264 7.20113 11.9515C6.97453 12.1765 6.84722 12.4817 6.84722 12.8C6.84722 13.1183 6.97453 13.4235 7.20113 13.6485C7.42774 13.8736 7.73509 14 8.05556 14H20.9444C21.2649 14 21.5723 13.8736 21.7989 13.6485C22.0255 13.4235 22.1528 13.1183 22.1528 12.8C22.1528 12.4817 22.0255 12.1765 21.7989 11.9515C21.5723 11.7264 21.2649 11.6 20.9444 11.6H8.05556ZM8.05556 18C7.73509 18 7.42774 18.1264 7.20113 18.3515C6.97453 18.5765 6.84722 18.8817 6.84722 19.2C6.84722 19.5183 6.97453 19.8235 7.20113 20.0485C7.42774 20.2736 7.73509 20.4 8.05556 20.4H16.1111C16.4316 20.4 16.7389 20.2736 16.9655 20.0485C17.1921 19.8235 17.3194 19.5183 17.3194 19.2C17.3194 18.8817 17.1921 18.5765 16.9655 18.3515C16.7389 18.1264 16.4316 18 16.1111 18H8.05556Z" fill="#5A1236"/>
</svg>
