<svg width="37" height="27" viewBox="0 0 37 27" fill="none" xmlns="http://www.w3.org/2000/svg">
<path d="M18.3328 0C25.4828 0 31.4378 4.04833 36.1078 11.9233L36.4745 12.555L36.5495 12.7217L36.5995 12.86L36.6228 12.9517L36.6461 13.0883L36.6645 13.255V13.4383L36.6411 13.6233C36.6302 13.6852 36.6157 13.7464 36.5978 13.8067L36.5328 13.9867L36.4728 14.1117L36.4461 14.1617C31.8395 22.2217 25.9461 26.4617 18.8545 26.66L18.3328 26.6667C11.0061 26.6667 4.9378 22.4183 0.219463 14.16C0.0756451 13.9082 0 13.6233 0 13.3333C0 13.0434 0.0756451 12.7584 0.219463 12.5067C4.9378 4.24833 11.0061 0 18.3328 0ZM18.3328 8.33333C17.0067 8.33333 15.7349 8.86012 14.7973 9.7978C13.8596 10.7355 13.3328 12.0073 13.3328 13.3333C13.3328 14.6594 13.8596 15.9312 14.7973 16.8689C15.7349 17.8065 17.0067 18.3333 18.3328 18.3333C19.6589 18.3333 20.9306 17.8065 21.8683 16.8689C22.806 15.9312 23.3328 14.6594 23.3328 13.3333C23.3328 12.0073 22.806 10.7355 21.8683 9.7978C20.9306 8.86012 19.6589 8.33333 18.3328 8.33333Z" fill="#5A1236"/>
</svg>
