<svg width="300" height="300" viewBox="0 0 300 300" fill="none" xmlns="http://www.w3.org/2000/svg">
<path d="M271.242 27.36V75.936H201.474L198.96 27.696L271.242 27.36Z" fill="#E0E0E0"/>
<path d="M198.96 27.696V75.834H268.728V27.696L198.96 27.696Z" fill="white"/>
<path d="M269.064 76.164H198.63V27.366H269.064V76.164ZM199.29 75.504H268.398V28.026H199.29V75.504Z" fill="#E0E0E0"/>
<path d="M261.174 33.678H206.52V69.852H261.174V33.678Z" fill="white"/>
<path d="M261.174 33.678H260.904H260.13H257.13L245.868 33.72L206.526 33.798L206.682 33.642C206.682 44.694 206.682 56.94 206.682 69.81L206.514 69.636L261.168 69.672L261.03 69.81C261.06 58.8 261.084 49.776 261.102 43.488C261.102 40.35 261.132 37.896 261.138 36.21C261.138 35.382 261.138 34.746 261.138 34.302C261.138 33.864 261.138 33.636 261.138 33.636C261.138 33.636 261.138 33.846 261.138 34.272C261.138 34.698 261.138 35.34 261.138 36.156C261.138 37.836 261.138 40.278 261.174 43.404C261.174 49.71 261.216 58.764 261.246 69.804V69.942H261.108L206.454 69.978H206.28V69.804C206.28 56.934 206.28 44.688 206.28 33.636V33.48H206.442L246 33.6L257.226 33.642H260.196H260.952L261.174 33.678Z" fill="#E0E0E0"/>
<path d="M198.96 27.564C199.39 27.7715 199.793 28.0315 200.16 28.338C200.874 28.854 201.846 29.586 202.896 30.426C203.946 31.266 204.87 32.058 205.518 32.658C205.894 32.9535 206.231 33.2963 206.52 33.678C205.19 32.7431 203.909 31.7418 202.68 30.678C201.377 29.7175 200.135 28.6775 198.96 27.564Z" fill="#E0E0E0"/>
<path d="M268.734 27.696C267.585 28.8227 266.358 29.8673 265.062 30.822C263.834 31.8637 262.535 32.8181 261.174 33.678C262.322 32.5497 263.549 31.5051 264.846 30.552C266.074 29.5103 267.373 28.5559 268.734 27.696Z" fill="#E0E0E0"/>
<path d="M268.674 75.84L260.874 69.534L268.674 75.84Z" fill="white"/>
<path d="M260.898 69.534C262.296 70.4428 263.631 71.4451 264.894 72.534C266.228 73.542 267.491 74.6406 268.674 75.822C267.276 74.9132 265.941 73.9109 264.678 72.822C263.344 71.814 262.081 70.7154 260.898 69.534Z" fill="#E0E0E0"/>
<path d="M198.96 75.834C200.096 74.7165 201.312 73.6818 202.596 72.738C203.807 71.705 205.093 70.7624 206.442 69.918C205.306 71.0343 204.091 72.067 202.806 73.008C201.594 74.0417 200.309 74.9862 198.96 75.834Z" fill="#E0E0E0"/>
<path d="M217.614 44.946V57.06H252.006V44.946H217.614Z" fill="#E0E0E0"/>
<path d="M220.608 287.694H282.468V108.144H220.608L220.608 287.694Z" fill="#E0E0E0"/>
<path d="M187.404 287.694H255.132L255.132 108.144H187.404L187.404 287.694Z" fill="#F5F5F5"/>
<path d="M228.984 245.796H210.888C210.546 245.796 210.218 245.66 209.976 245.418C209.734 245.176 209.598 244.848 209.598 244.506V243.432H230.274V244.506C230.274 244.848 230.138 245.176 229.896 245.418C229.654 245.66 229.326 245.796 228.984 245.796Z" fill="#E0E0E0"/>
<path d="M190.398 243.432C190.398 243.432 190.398 243.648 190.398 244.08C190.398 244.512 190.398 245.166 190.398 246.006C190.398 247.716 190.398 250.206 190.362 253.416C190.362 259.866 190.32 269.142 190.29 280.5V280.638H190.428L250.782 280.674H250.986V280.5C250.986 267.384 250.986 254.874 250.986 243.486V243.33H250.8L207.252 243.366L194.826 243.396H191.532H190.686H190.41H190.71H191.568H194.892L207.36 243.45L250.8 243.57L250.638 243.408C250.638 254.808 250.638 267.306 250.638 280.422L250.812 280.254H250.776L190.422 280.29L190.554 280.422C190.524 269.1 190.5 259.848 190.482 253.422C190.482 250.206 190.482 247.698 190.452 245.982C190.452 245.13 190.452 244.482 190.452 244.032C190.452 243.582 190.398 243.432 190.398 243.432Z" fill="#E0E0E0"/>
<path d="M210.414 257.346H228.384V252.492H210.414V257.346Z" fill="#E0E0E0"/>
<path d="M229.806 202.596H211.716C211.374 202.596 211.046 202.46 210.804 202.218C210.562 201.976 210.426 201.648 210.426 201.306V200.232H231.096V201.306C231.096 201.648 230.96 201.976 230.718 202.218C230.476 202.46 230.148 202.596 229.806 202.596Z" fill="#E0E0E0"/>
<path d="M190.566 200.226C190.566 200.226 190.566 200.442 190.566 200.874C190.566 201.306 190.566 201.966 190.566 202.8C190.566 204.51 190.566 207 190.53 210.21C190.53 216.66 190.488 225.936 190.458 237.3V237.432H190.596L250.95 237.468H251.154V237.3C251.154 224.178 251.154 211.668 251.154 200.286V200.124H250.998L207.45 200.16L195.024 200.196H191.73H190.884H190.608H190.908H191.766H195.09L207.558 200.256L250.998 200.37L250.836 200.214C250.836 211.614 250.836 224.106 250.836 237.228L251.01 237.054H250.974L190.62 237.09L190.752 237.228C190.722 225.9 190.698 216.654 190.68 210.228C190.68 207.012 190.68 204.504 190.68 202.788C190.68 201.942 190.68 201.288 190.68 200.838C190.68 200.388 190.566 200.226 190.566 200.226Z" fill="#E0E0E0"/>
<path d="M211.77 213.852H229.74V208.998H211.77V213.852Z" fill="#E0E0E0"/>
<path d="M229.02 115.41H210.924C210.582 115.41 210.254 115.274 210.012 115.032C209.77 114.79 209.634 114.462 209.634 114.12V113.046H230.31V114.12C230.31 114.289 230.277 114.457 230.212 114.614C230.147 114.77 230.052 114.912 229.932 115.032C229.812 115.152 229.67 115.247 229.514 115.312C229.357 115.377 229.189 115.41 229.02 115.41Z" fill="#E0E0E0"/>
<path d="M190.428 113.04C190.428 113.04 190.428 113.256 190.428 113.688C190.428 114.12 190.428 114.78 190.428 115.614C190.428 117.324 190.428 119.814 190.398 123.024C190.398 129.474 190.356 138.75 190.326 150.114V150.246H190.458L250.818 150.288H251.022V150.114C251.022 136.992 251.022 124.482 251.022 113.1V112.938H250.8L207.258 112.974L194.826 113.01H191.532H190.692H190.41C190.51 113.015 190.61 113.015 190.71 113.01H191.568H194.898L207.36 113.064L250.8 113.178L250.638 113.022C250.638 124.422 250.638 136.914 250.638 150.036L250.812 149.862L190.452 149.898L190.59 150.036C190.56 138.708 190.536 129.462 190.518 123.036C190.518 119.82 190.488 117.312 190.482 115.596C190.482 114.75 190.482 114.096 190.482 113.646C190.482 113.196 190.428 113.04 190.428 113.04Z" fill="#E0E0E0"/>
<path d="M211.308 125.796H229.278V120.942H211.308V125.796Z" fill="#E0E0E0"/>
<path d="M229.02 158.988H210.924C210.582 158.988 210.254 158.852 210.012 158.61C209.77 158.368 209.634 158.04 209.634 157.698V156.588H230.31V157.662C230.315 157.834 230.285 158.006 230.222 158.167C230.16 158.327 230.065 158.474 229.945 158.598C229.825 158.721 229.681 158.819 229.522 158.887C229.363 158.954 229.193 158.988 229.02 158.988Z" fill="#E0E0E0"/>
<path d="M190.428 156.6C190.428 156.6 190.428 156.816 190.428 157.248C190.428 157.68 190.428 158.334 190.428 159.174C190.428 160.884 190.428 163.374 190.398 166.584C190.398 173.034 190.356 182.31 190.326 193.668V193.8H190.458L250.818 193.836H251.022V193.662C251.022 180.546 251.022 168.036 251.022 156.648V156.492H250.8L207.258 156.528H194.826H191.532H190.692H190.41H190.71H191.568H194.898L207.36 156.582L250.8 156.702L250.638 156.54C250.638 167.94 250.638 180.438 250.638 193.554L250.812 193.386L190.452 193.422L190.59 193.554C190.56 182.232 190.536 172.98 190.518 166.554C190.518 163.338 190.488 160.83 190.482 159.114C190.482 158.262 190.482 157.614 190.482 157.164C190.482 156.714 190.428 156.6 190.428 156.6Z" fill="#E0E0E0"/>
<path d="M211.308 169.362H229.278V164.508H211.308V169.362Z" fill="#E0E0E0"/>
<path d="M92.178 26.148H27.324V84.168H92.178V26.148Z" fill="#FAFAFA"/>
<path d="M92.178 84.168C92.178 84.168 92.178 83.796 92.178 83.088C92.178 82.38 92.178 81.336 92.178 79.98C92.178 77.256 92.178 73.278 92.136 68.202C92.136 58.068 92.094 43.602 92.064 26.148L92.208 26.292H27.36L27.534 26.118C27.534 47.226 27.534 67.086 27.534 84.138L27.378 83.982L74.286 84.06L87.516 84.102H91.02H91.92H92.232H91.938H91.05H87.582L74.382 84.138L27.378 84.216H27.228V84.066C27.228 67.014 27.228 47.154 27.228 26.046V25.872H27.408H92.256H92.406V26.022C92.37 43.494 92.346 58.008 92.328 68.172C92.328 73.23 92.298 77.172 92.292 79.914C92.292 81.258 92.292 82.314 92.292 82.998C92.292 83.682 92.178 84.168 92.178 84.168Z" fill="#E0E0E0"/>
<path d="M52.2001 36.456C52.2001 36.552 48.7861 36.63 44.5741 36.63C40.3621 36.63 36.9541 36.552 36.9541 36.456C36.9541 36.36 40.3621 36.282 44.5741 36.282C48.7861 36.282 52.2001 36.36 52.2001 36.456Z" fill="#E0E0E0"/>
<path d="M79.674 40.8C79.674 40.896 70.296 40.974 58.728 40.974C47.16 40.974 37.8 40.908 37.8 40.8C37.8 40.692 47.1781 40.626 58.7461 40.626C70.3141 40.626 79.674 40.716 79.674 40.8Z" fill="#E0E0E0"/>
<path d="M39.7862 48.192H37.0562V50.922H39.7862V48.192Z" fill="#E0E0E0"/>
<path d="M46.512 48.192H43.782V50.922H46.512V48.192Z" fill="#E0E0E0"/>
<path d="M53.364 48.066H50.634V50.796H53.364V48.066Z" fill="#E0E0E0"/>
<path d="M59.9641 48.192H57.2341V50.922H59.9641V48.192Z" fill="#E0E0E0"/>
<path d="M66.69 48.192H63.96V50.922H66.69V48.192Z" fill="#E0E0E0"/>
<path d="M73.416 48.192H70.686V50.922H73.416V48.192Z" fill="#E0E0E0"/>
<path d="M80.1421 48.192H77.4121V50.922H80.1421V48.192Z" fill="#EBEBEB"/>
<path d="M39.7862 54H37.0562V56.73H39.7862V54Z" fill="#EBEBEB"/>
<path d="M46.512 54H43.782V56.73H46.512V54Z" fill="#E0E0E0"/>
<path d="M53.2381 54H50.5081V56.73H53.2381V54Z" fill="#EBEBEB"/>
<path d="M59.9641 54H57.2341V56.73H59.9641V54Z" fill="#E0E0E0"/>
<path d="M66.69 54H63.96V56.73H66.69V54Z" fill="#E0E0E0"/>
<path d="M73.5361 53.874H70.8062V56.604H73.5361V53.874Z" fill="#E0E0E0"/>
<path d="M80.1421 54H77.4121V56.73H80.1421V54Z" fill="#E0E0E0"/>
<path d="M39.7862 59.808H37.0562V62.538H39.7862V59.808Z" fill="#E0E0E0"/>
<path d="M46.638 59.682H43.908V62.412H46.638V59.682Z" fill="#E0E0E0"/>
<path d="M53.2381 59.808H50.5081V62.538H53.2381V59.808Z" fill="#E0E0E0"/>
<path d="M59.9641 59.808H57.2341V62.538H59.9641V59.808Z" fill="#EBEBEB"/>
<path d="M66.69 59.808H63.96V62.538H66.69V59.808Z" fill="#E0E0E0"/>
<path d="M73.416 59.808H70.686V62.538H73.416V59.808Z" fill="#E0E0E0"/>
<path d="M80.1421 59.808H77.4121V62.538H80.1421V59.808Z" fill="#E0E0E0"/>
<path d="M39.7862 65.616H37.0562V68.346H39.7862V65.616Z" fill="#E0E0E0"/>
<path d="M46.512 65.616H43.782V68.346H46.512V65.616Z" fill="#E0E0E0"/>
<path d="M53.2381 65.616H50.5081V68.346H53.2381V65.616Z" fill="#E0E0E0"/>
<path d="M60.0901 65.496H57.3601V68.226H60.0901V65.496Z" fill="#E0E0E0"/>
<path d="M66.69 65.616H63.96V68.346H66.69V65.616Z" fill="#E0E0E0"/>
<path d="M73.416 65.616H70.686V68.346H73.416V65.616Z" fill="#EBEBEB"/>
<path d="M80.1421 65.616H77.4121V68.346H80.1421V65.616Z" fill="#E0E0E0"/>
<path d="M39.7862 71.424H37.0562V74.154H39.7862V71.424Z" fill="#E0E0E0"/>
<path d="M46.512 71.424H43.782V74.154H46.512V71.424Z" fill="#EBEBEB"/>
<path d="M53.2381 71.424H50.5081V74.154H53.2381V71.424Z" fill="#E0E0E0"/>
<path d="M59.9641 71.424H57.2341V74.154H59.9641V71.424Z" fill="#E0E0E0"/>
<path d="M66.69 71.424H63.96V74.154H66.69V71.424Z" fill="#E0E0E0"/>
<path d="M73.5361 71.304H70.8062V74.034H73.5361V71.304Z" fill="#E0E0E0"/>
<path d="M80.1421 71.424H77.4121V74.154H80.1421V71.424Z" fill="#E0E0E0"/>
<path d="M146.693 112.537L124.327 120.957L130.003 136.034L152.369 127.613L146.693 112.537Z" fill="#EBEBEB"/>
<path d="M146.832 112.704C146.799 112.803 146.755 112.897 146.7 112.986L146.286 113.766C145.902 114.456 145.368 115.428 144.714 116.616C143.358 119.016 141.498 122.34 139.446 126.006L139.404 126.084H139.314L139.11 126.018L128.742 122.616L125.604 121.56L124.758 121.266C124.656 121.236 124.558 121.196 124.464 121.146C124.568 121.165 124.67 121.191 124.77 121.224L125.634 121.482L128.79 122.472L139.2 125.784L139.404 125.85L139.272 125.904C141.354 122.25 143.226 118.95 144.6 116.544L146.226 113.724L146.682 112.962C146.724 112.872 146.775 112.785 146.832 112.704Z" fill="#E0E0E0"/>
<path d="M130.14 136.2C130.086 136.2 130.986 133.482 132.162 130.17C133.338 126.858 134.328 124.17 134.382 124.212C134.436 124.254 133.536 126.936 132.366 130.212C131.196 133.488 130.2 136.2 130.14 136.2Z" fill="#E0E0E0"/>
<path d="M141.75 121.23C141.78 121.176 144.216 122.604 147.186 124.41C150.156 126.216 152.538 127.728 152.508 127.782C152.478 127.836 150.042 126.408 147.072 124.596C144.102 122.784 141.72 121.278 141.75 121.23Z" fill="#E0E0E0"/>
<path d="M175.656 64.95C176.228 64.6033 176.843 64.3349 177.486 64.152L177.864 62.352L180.924 62.298L181.368 64.098C182.016 64.2564 182.64 64.5027 183.222 64.83L184.77 63.816L186.972 65.94L186.012 67.524C186.358 68.0851 186.627 68.6906 186.81 69.324L188.61 69.696L188.664 72.762L186.864 73.2C186.704 73.849 186.46 74.4743 186.138 75.06L187.152 76.602L185.022 78.804L183.444 77.85C182.871 78.1924 182.256 78.4587 181.614 78.642L181.236 80.442L178.176 80.496L177.732 78.696C177.084 78.535 176.461 78.2888 175.878 77.964L174.33 78.978L172.128 76.848L173.088 75.27C172.74 74.699 172.472 74.0834 172.29 73.44L170.49 73.062L170.436 70.002L172.236 69.558C172.395 68.9106 172.639 68.2872 172.962 67.704L171.948 66.156L174.078 63.954L175.656 64.914V64.95ZM177.288 69.024C176.835 69.4912 176.531 70.0823 176.414 70.7223C176.298 71.3624 176.374 72.0227 176.632 72.6197C176.891 73.2166 177.321 73.7235 177.868 74.0759C178.415 74.4284 179.054 74.6107 179.704 74.5998C180.355 74.5889 180.988 74.3852 181.522 74.0146C182.057 73.6439 182.47 73.1229 182.708 72.5176C182.947 71.9123 183 71.2498 182.862 70.614C182.724 69.9782 182.4 69.3977 181.932 68.946C181.624 68.6444 181.259 68.4065 180.859 68.2459C180.458 68.0854 180.03 68.0053 179.599 68.0104C179.168 68.0154 178.741 68.1054 178.345 68.2752C177.948 68.445 177.589 68.6913 177.288 69V69.024Z" fill="#E0E0E0"/>
<path d="M177.288 69C177.459 68.7915 177.661 68.6113 177.888 68.466C178.283 68.2096 178.729 68.0401 179.194 67.9688C179.66 67.8975 180.136 67.9261 180.59 68.0526C181.044 68.1791 181.465 68.4007 181.827 68.7027C182.189 69.0046 182.482 69.38 182.688 69.804C182.985 70.4017 183.096 71.0747 183.006 71.736C182.91 72.4484 182.59 73.112 182.094 73.632C181.594 74.1478 180.942 74.4905 180.234 74.61C179.9 74.6639 179.56 74.6639 179.226 74.61C178.902 74.5697 178.587 74.4807 178.29 74.346C177.742 74.0976 177.27 73.7083 176.922 73.218C176.624 72.7889 176.43 72.2956 176.358 71.778C176.244 71.0296 176.397 70.2651 176.79 69.618C176.927 69.392 177.099 69.1894 177.3 69.018C177.3 69.018 177.102 69.234 176.85 69.684C176.498 70.3259 176.371 71.0675 176.49 71.79C176.568 72.284 176.761 72.7526 177.054 73.158C177.389 73.6208 177.84 73.9871 178.362 74.22C178.642 74.3445 178.94 74.4273 179.244 74.466C179.562 74.5168 179.886 74.5168 180.204 74.466C180.873 74.352 181.489 74.0285 181.962 73.542C182.432 73.0475 182.734 72.4178 182.826 71.742C182.901 71.1263 182.799 70.5018 182.532 69.942C182.283 69.4261 181.902 68.9852 181.428 68.664C181.013 68.387 180.538 68.2122 180.042 68.154C179.317 68.0602 178.582 68.2123 177.954 68.586C177.498 68.82 177.306 69.042 177.288 69Z" fill="#E0E0E0"/>
<path d="M175.656 64.95L175.554 64.896L175.254 64.722L174.054 64.014H174.09L171.978 66.234V66.174L172.998 67.716C172.678 68.297 172.438 68.9186 172.284 69.564V69.6H172.248L170.448 70.05L170.496 69.984C170.496 70.944 170.538 71.97 170.556 73.044L170.502 72.972L172.302 73.344H172.344V73.386C172.527 74.0184 172.794 74.6237 173.136 75.186V75.228V75.27L172.2 76.932V76.824L174.408 78.948H174.3L175.842 77.928L175.89 77.898L175.938 77.928C176.516 78.2482 177.133 78.4903 177.774 78.648H177.828V78.702L178.266 80.502L178.176 80.436L181.236 80.382L181.146 80.454C181.266 79.854 181.398 79.254 181.524 78.654V78.6H181.578C182.212 78.4225 182.817 78.1579 183.378 77.814H183.432H183.48L185.058 78.774H184.944L187.068 76.572V76.686C186.726 76.164 186.384 75.648 186.054 75.138L186.024 75.09V75.042C186.347 74.4651 186.591 73.8476 186.75 73.206V73.152H186.804L188.604 72.714L188.538 72.804C188.538 71.76 188.52 70.74 188.484 69.744L188.556 69.828L186.756 69.444H186.708V69.39C186.529 68.7579 186.267 68.1526 185.928 67.59V67.548V67.506L186.888 65.922V66.018L184.692 63.888H184.782L183.234 64.896H183.198H183.162C182.583 64.5739 181.963 64.3298 181.32 64.17H181.284V64.134C181.128 63.48 180.984 62.892 180.846 62.334L180.906 62.376L177.84 62.412H177.882C177.726 63.132 177.6 63.726 177.492 64.212C177.009 64.3437 176.54 64.5246 176.094 64.752L175.764 64.92L175.65 64.98C175.681 64.9517 175.715 64.9275 175.752 64.908L176.076 64.722C176.521 64.4847 176.99 64.2937 177.474 64.152C177.57 63.66 177.69 63.066 177.834 62.352V62.316H177.87L180.93 62.25H180.978V62.292C181.116 62.85 181.266 63.438 181.428 64.092L181.38 64.05C182.036 64.2089 182.668 64.4551 183.258 64.782H183.186L184.734 63.768L184.782 63.732L184.824 63.774L187.026 65.898L187.074 65.94L187.038 65.994L186.084 67.578V67.494C186.435 68.0705 186.706 68.6922 186.888 69.342L186.828 69.282L188.628 69.654H188.694V69.72C188.694 70.716 188.736 71.736 188.754 72.78V72.852H188.682L186.882 73.296L186.948 73.23C186.787 73.886 186.539 74.5176 186.21 75.108V75L187.23 76.548L187.266 76.608L187.218 76.662L185.088 78.864L185.04 78.918L184.974 78.882L183.39 77.922H183.486C182.909 78.2724 182.288 78.5429 181.638 78.726L181.704 78.654C181.572 79.254 181.446 79.896 181.326 80.454V80.532H181.254L178.194 80.58H178.122V80.508C177.966 79.908 177.816 79.272 177.678 78.708L177.744 78.774C177.089 78.6103 176.458 78.3623 175.866 78.036H175.962L174.414 79.05L174.354 79.086L174.306 79.038L172.104 76.908L172.056 76.866L172.092 76.806C172.428 76.254 172.752 75.714 173.052 75.228V75.312C172.704 74.7328 172.435 74.1092 172.254 73.458L172.308 73.512L170.508 73.134H170.448V73.074C170.448 72 170.412 70.98 170.4 70.014V69.96H170.448L172.248 69.522L172.2 69.6C172.362 68.9459 172.61 68.3164 172.938 67.728V67.788C172.572 67.23 172.236 66.708 171.93 66.234L174.066 64.044L175.266 64.764L175.56 64.956C175.626 64.92 175.656 64.944 175.656 64.95Z" fill="#E0E0E0"/>
<path d="M27.3001 281.592C26.2021 280.656 23.7601 277.674 25.6441 274.212C26.3341 272.946 27.8041 272.316 29.1301 271.758C30.4561 271.2 31.8541 270.714 32.9521 269.778C35.0281 268.014 35.5981 265.086 36.9721 262.734C38.5561 260.034 41.5021 258.006 44.6161 258.15C48.2161 258.312 51.1561 261.228 52.5061 264.546C53.8561 267.864 53.9041 271.554 53.9281 275.142C53.9281 277.128 53.8561 279.342 52.3981 280.704C51.0601 281.94 49.0381 281.952 47.2201 281.904L27.7261 281.304" fill="#F5F5F5"/>
<path d="M64.5781 228H13.3201L22.5541 283.056C22.7438 284.204 23.2556 285.274 24.03 286.141C24.8044 287.009 25.8095 287.639 26.9281 287.958L27.1081 288.012C27.2581 288.048 27.4081 288.102 27.5641 288.126C27.9079 288.196 28.2572 288.237 28.6081 288.246V288.3L28.8601 288.258H51.7141C52.1349 288.258 52.5549 288.218 52.9681 288.138C54.305 287.93 55.5368 287.289 56.4743 286.314C57.4118 285.338 58.0034 284.082 58.1581 282.738L62.6041 244.8L62.8081 243.288L64.5721 228.288L64.5781 228ZM54.9121 263.112H49.6501L50.1781 247.134H56.2741L54.9121 263.112ZM56.7841 247.134H61.8001L59.9221 263.112H55.4221L56.7841 247.134ZM41.7841 280.83L41.4661 266.946H49.0141L48.5521 280.83H41.7841ZM33.5641 266.946H40.9261L41.2441 280.83H34.6441L33.5641 266.946ZM34.1641 280.83H27.9661C27.3661 277.08 26.6161 272.208 25.7881 266.946H33.0541L34.1641 280.83ZM33.3001 263.112L32.0581 247.134H40.4701L40.8361 263.112H33.3001ZM41.3761 263.112L41.0101 247.134H49.6681L49.1401 263.112H41.3761ZM40.9201 243.312L40.5781 228.516H50.2921L49.8001 243.3L40.9201 243.312ZM40.4101 243.312H31.7281L30.6001 228.504H40.0441L40.4101 243.312ZM31.2001 243.3H22.0621C21.7381 241.26 21.4321 239.322 21.1501 237.582C20.1961 231.582 19.8361 229.35 19.6381 228.504H30.0661L31.2001 243.3ZM31.5001 247.134L32.7421 263.112H25.2001C24.9421 261.492 24.6841 259.854 24.4261 258.21L22.6801 247.134H31.5001ZM24.6721 263.112H19.7221L17.0461 247.134H22.1521C22.9321 252.072 23.8021 257.568 24.6721 263.112ZM25.2721 266.946C26.0281 271.746 26.7661 276.486 27.4501 280.83H22.6981L20.3641 266.946H25.2721ZM49.0621 280.83L49.5241 266.946H54.6001L53.4001 280.83H49.0621ZM50.3041 243.3L50.7961 228.504H57.8641L56.6041 243.3H50.3041ZM19.1521 228.504C19.3561 229.572 20.2921 235.398 21.5521 243.3H16.4041L13.9201 228.504H19.1521ZM57.8701 280.83H53.9041L55.1041 266.946H59.5081L57.8701 280.83ZM62.2741 243.3H57.1141L58.3801 228.504H64.0081L62.2741 243.3Z" fill="#E0E0E0"/>
<path d="M273.3 287.694C273.3 287.784 218.364 287.85 150.606 287.85C82.8479 287.85 27.8999 287.784 27.8999 287.694C27.8999 287.604 82.8239 287.538 150.606 287.538C218.388 287.538 273.3 287.61 273.3 287.694Z" fill="#263238"/>
<path d="M221.034 151.098C221.034 151.098 228.12 142.944 230.796 134.784C233.472 126.624 232.2 127.584 232.2 127.584C232.2 127.584 228.6 135.504 225.852 139.332C223.104 143.16 218.226 148.776 218.226 148.776L221.034 151.098Z" fill="#455A64"/>
<path d="M219.6 128.832C219.648 128.749 219.724 128.686 219.813 128.652C219.903 128.619 220.002 128.618 220.092 128.649C220.183 128.68 220.26 128.742 220.31 128.823C220.36 128.905 220.381 129.001 220.368 129.096C219.936 131.964 219 138.696 219.036 143.046C219.084 148.71 219.036 150.9 219.036 150.9H216.084C216.084 150.9 216.612 139.188 217.284 135.618C217.72 133.255 218.5 130.968 219.6 128.832Z" fill="#455A64"/>
<path d="M218.016 149.952C216.778 147.151 215.959 144.183 215.586 141.144C215.346 139.056 215.778 136.236 216.42 132.48C216.669 131.094 216.796 129.688 216.798 128.28C216.795 128.125 216.74 127.975 216.643 127.853C216.546 127.732 216.412 127.646 216.261 127.608C216.11 127.571 215.951 127.584 215.809 127.646C215.666 127.707 215.548 127.814 215.472 127.95C214.758 129.267 214.206 130.665 213.828 132.114C213.114 135.828 212.304 137.682 212.922 141.21C213.54 144.738 215.826 150.156 215.826 150.156L218.016 149.952Z" fill="#455A64"/>
<path d="M215.358 150.186C215.358 150.186 207.558 133.464 207.036 130.986C206.514 128.508 204.666 122.784 204.45 123.108C204.234 123.432 203.91 126.456 205.314 129.906C206.718 133.356 212.7 150.696 212.7 150.696H215.358" fill="#455A64"/>
<path d="M218.868 149.442C218.868 149.442 218.946 149.394 219.084 149.292C219.222 149.19 219.432 149.04 219.684 148.83C220.41 148.249 221.107 147.632 221.772 146.982C223.957 144.825 225.849 142.39 227.4 139.74C228.959 137.092 230.257 134.299 231.276 131.4C231.672 130.29 231.954 129.384 232.14 128.748C232.236 128.436 232.302 128.19 232.344 128.022C232.373 127.938 232.393 127.852 232.404 127.764C232.404 127.764 232.368 127.848 232.314 128.01L232.08 128.73C231.876 129.33 231.57 130.26 231.168 131.364C230.126 134.242 228.825 137.019 227.28 139.662C225.731 142.304 223.854 144.739 221.694 146.91C220.866 147.738 220.152 148.368 219.648 148.794L219.048 149.274C218.983 149.325 218.923 149.381 218.868 149.442Z" fill="#263238"/>
<path d="M218.016 141.42C218.054 141.258 218.078 141.094 218.088 140.928C218.124 140.58 218.172 140.13 218.226 139.584C218.352 138.456 218.544 136.896 218.826 135.18C219.108 133.464 219.426 131.922 219.648 130.812L219.93 129.492C219.973 129.333 220.001 129.17 220.014 129.006C219.955 129.161 219.905 129.319 219.864 129.48C219.78 129.786 219.666 130.23 219.528 130.788C219.264 131.892 218.928 133.434 218.664 135.156C218.4 136.878 218.214 138.438 218.118 139.572C218.07 140.142 218.04 140.604 218.028 140.922C218.007 141.087 218.003 141.254 218.016 141.42Z" fill="#263238"/>
<path d="M216.192 127.848C216.156 127.915 216.126 127.986 216.102 128.058L215.868 128.658C215.766 128.928 215.646 129.258 215.532 129.654C215.418 130.05 215.268 130.488 215.154 130.992C215.094 131.244 215.028 131.508 214.962 131.778C214.896 132.048 214.854 132.342 214.794 132.642C214.662 133.242 214.584 133.878 214.494 134.55C214.323 136.021 214.26 137.503 214.308 138.984C214.366 140.466 214.531 141.942 214.8 143.4C214.944 144.066 215.07 144.702 215.238 145.284C215.322 145.578 215.388 145.884 215.472 146.13L215.718 146.904C215.868 147.396 216.048 147.828 216.192 148.212C216.336 148.596 216.474 148.92 216.6 149.178L216.876 149.778C216.905 149.849 216.941 149.918 216.984 149.982C216.984 149.982 216.984 149.904 216.906 149.76C216.828 149.616 216.762 149.4 216.654 149.16C216.546 148.92 216.414 148.56 216.282 148.182C216.15 147.804 215.97 147.366 215.832 146.874L215.592 146.1C215.514 145.836 215.448 145.548 215.37 145.254C215.208 144.654 215.088 144.054 214.95 143.376C214.693 141.926 214.53 140.461 214.464 138.99C214.422 137.518 214.48 136.044 214.638 134.58C214.728 133.908 214.8 133.266 214.92 132.678C214.98 132.378 215.022 132.078 215.082 131.82C215.142 131.562 215.208 131.28 215.262 131.034C215.37 130.53 215.508 130.086 215.616 129.69C215.724 129.294 215.832 128.964 215.922 128.688L216.126 128.058C216.156 127.991 216.179 127.92 216.192 127.848Z" fill="#263238"/>
<path d="M204.54 123.444C204.54 123.444 204.54 123.444 204.54 123.522V123.738C204.576 123.93 204.618 124.212 204.696 124.572C204.846 125.292 205.098 126.324 205.488 127.572C205.878 128.82 206.406 130.296 207.036 131.916C207.666 133.536 208.392 135.3 209.082 137.178C209.772 139.056 210.324 140.88 210.834 142.542C211.344 144.204 211.812 145.692 212.274 146.928C212.621 147.901 213.022 148.855 213.474 149.784C213.63 150.114 213.774 150.384 213.87 150.534L213.978 150.726C213.99 150.748 214.004 150.768 214.02 150.786C214.012 150.761 214.002 150.737 213.99 150.714L213.9 150.516C213.816 150.342 213.684 150.09 213.534 149.76C213.085 148.823 212.684 147.864 212.334 146.886C211.884 145.65 211.422 144.162 210.924 142.5C210.426 140.838 209.886 139.002 209.184 137.1C208.482 135.198 207.756 133.458 207.126 131.844C206.496 130.23 205.926 128.766 205.542 127.518C205.158 126.27 204.876 125.238 204.702 124.518C204.618 124.164 204.564 123.882 204.522 123.696L204.468 123.48L204.54 123.444Z" fill="#263238"/>
<path d="M228.534 119.754C228.642 119.652 228.78 119.589 228.928 119.574C229.075 119.56 229.223 119.594 229.349 119.672C229.475 119.75 229.571 119.867 229.624 120.006C229.676 120.144 229.681 120.296 229.638 120.438C229.367 121.296 229.04 122.136 228.66 122.952C227.586 125.226 224.46 133.38 222.972 137.862C221.484 142.344 219.432 150.696 219.432 150.696L216.288 150.186C216.288 150.186 219.162 136.458 221.97 131.508C224.226 127.53 226.482 121.8 228.534 119.754Z" fill="#455A64"/>
<path d="M222.114 140.664C222.046 140.781 221.992 140.906 221.952 141.036C221.862 141.282 221.736 141.636 221.592 142.092C221.304 142.986 220.95 144.24 220.59 145.632C220.23 147.024 219.936 148.284 219.732 149.202C219.636 149.64 219.558 150 219.498 150.294C219.461 150.425 219.439 150.56 219.432 150.696C219.489 150.571 219.531 150.44 219.558 150.306C219.636 150.024 219.732 149.658 219.846 149.232L220.752 145.674C221.106 144.282 221.442 143.028 221.706 142.128C221.826 141.702 221.934 141.342 222.012 141.06C222.061 140.932 222.095 140.8 222.114 140.664Z" fill="#263238"/>
<path d="M217.854 150.444V150.36L217.89 150.114C217.92 149.892 217.95 149.574 218.016 149.16C218.13 148.332 218.34 147.144 218.676 145.698C219.077 143.999 219.567 142.323 220.146 140.676C220.788 138.816 221.598 136.806 222.516 134.724C224.364 130.566 226.206 126.882 227.418 124.152C228.018 122.796 228.51 121.686 228.822 120.912C228.978 120.522 229.092 120.222 229.176 120.018C229.212 119.922 229.236 119.844 229.26 119.784C229.284 119.724 229.29 119.7 229.26 119.7L229.224 119.778C229.194 119.838 229.164 119.91 229.122 120.006C229.026 120.216 228.9 120.51 228.738 120.882C228.408 121.65 227.916 122.754 227.292 124.104C226.05 126.816 224.19 130.494 222.336 134.658C221.418 136.74 220.614 138.756 219.978 140.628C219.402 142.279 218.921 143.962 218.538 145.668C218.28 146.819 218.079 147.983 217.938 149.154C217.884 149.562 217.866 149.892 217.842 150.108V150.354C217.846 150.414 217.85 150.444 217.854 150.444Z" fill="#263238"/>
<path d="M216.288 150.186C216.339 150.013 216.375 149.837 216.396 149.658C216.456 149.292 216.54 148.806 216.642 148.218C216.858 147.018 217.188 145.32 217.662 143.496C218.136 141.672 218.664 140.046 219.072 138.882C219.27 138.318 219.438 137.856 219.564 137.502C219.632 137.337 219.686 137.166 219.726 136.992C219.64 137.148 219.566 137.311 219.504 137.478C219.366 137.796 219.174 138.258 218.958 138.84C218.394 140.352 217.908 141.892 217.5 143.454C217.026 145.254 216.714 146.97 216.522 148.194C216.432 148.794 216.366 149.304 216.33 149.652C216.302 149.829 216.288 150.007 216.288 150.186Z" fill="#263238"/>
<path d="M209.844 164.676H222.102V149.736H209.844V164.676Z" fill="#5A1236"/>
<g opacity="0.3">
<path d="M209.844 164.676H222.102V149.736H209.844V164.676Z" fill="black"/>
</g>
<path d="M213.75 164.676H224.628V149.736H213.75V164.676Z" fill="#5A1236"/>
<path d="M111.933 26.6952L89.1726 33.9809L94.084 49.324L116.844 42.0383L111.933 26.6952Z" fill="#5A1236"/>
<path d="M112.068 26.844C112.026 26.9403 111.976 27.0327 111.918 27.12C111.804 27.312 111.654 27.564 111.462 27.876L109.752 30.648L104.022 39.762L103.974 39.834H103.89L103.692 39.756L93.492 35.844L90.414 34.644L89.58 34.308C89.4802 34.2727 89.3838 34.2285 89.292 34.176C89.3946 34.1963 89.4951 34.2264 89.592 34.266L90.444 34.566L93.546 35.712L103.746 39.57L103.95 39.642L103.818 39.69L109.608 30.606C110.346 29.466 110.946 28.536 111.378 27.876L111.864 27.138C111.923 27.034 111.991 26.9356 112.068 26.844Z" fill="#263238"/>
<path d="M94.2 49.476C94.146 49.476 95.184 46.8 96.516 43.554C97.848 40.308 98.982 37.692 99.036 37.716C99.09 37.74 98.058 40.392 96.72 43.638C95.382 46.884 94.272 49.5 94.2 49.476Z" fill="#263238"/>
<path d="M106.56 35.1C106.596 35.052 108.96 36.6 111.828 38.556C114.696 40.512 117.012 42.156 116.976 42.156C116.94 42.156 114.576 40.662 111.708 38.706C108.84 36.75 106.524 35.154 106.56 35.1Z" fill="#263238"/>
<path d="M212.496 59.958L195.558 52.8C195.004 52.5573 194.568 52.1068 194.344 51.5456C194.12 50.9844 194.125 50.3575 194.358 49.8L204.294 26.352C204.535 25.7974 204.986 25.3604 205.548 25.1357C206.109 24.9111 206.737 24.9169 207.294 25.152L218.04 29.7L222.72 41.796L215.52 58.794C215.271 59.3471 214.813 59.7795 214.247 59.9974C213.681 60.2153 213.052 60.2012 212.496 59.958Z" fill="#5A1236"/>
<path d="M218.034 29.64L215.238 36.24C215.127 36.4988 215.069 36.7768 215.066 37.0582C215.063 37.3396 215.116 37.6188 215.221 37.8797C215.327 38.1406 215.483 38.3782 215.68 38.5787C215.878 38.7792 216.113 38.9387 216.372 39.048L222.714 41.736L218.034 29.64Z" fill="#5A1236"/>
<g opacity="0.2">
<path d="M215.076 36.858C214.873 37.3599 214.845 37.9157 214.998 38.4353C215.15 38.9549 215.474 39.4077 215.916 39.72C215.976 39.7693 216.038 39.8154 216.102 39.858C216.87 40.356 221.91 43.638 221.964 43.512L222.714 41.712L216.372 39.024C216.372 39.024 214.8 38.322 215.076 36.858Z" fill="black"/>
</g>
<g opacity="0.3">
<path d="M218.034 29.64L215.238 36.24C215.127 36.4988 215.069 36.7768 215.066 37.0582C215.063 37.3396 215.116 37.6188 215.221 37.8797C215.327 38.1406 215.483 38.3782 215.68 38.5787C215.878 38.7792 216.113 38.9387 216.372 39.048L222.714 41.736L218.034 29.64Z" fill="white"/>
</g>
<path d="M213.93 35.4C212.565 35.0026 211.233 34.499 209.946 33.894C208.616 33.3921 207.327 32.7903 206.088 32.094C207.456 32.4876 208.791 32.9912 210.078 33.6C211.407 34.0981 212.695 34.7 213.93 35.4Z" fill="#FAFAFA"/>
<path d="M217.41 41.244C217.374 41.328 214.458 40.176 210.894 38.664C207.33 37.152 204.474 35.868 204.51 35.778C204.546 35.688 207.462 36.852 211.026 38.358C214.59 39.864 217.446 41.16 217.41 41.244Z" fill="#FAFAFA"/>
<path d="M217.254 44.856C217.218 44.94 214.038 43.656 210.156 42.03C206.274 40.404 203.154 39 203.19 38.898C203.226 38.796 206.4 40.098 210.288 41.724C214.176 43.35 217.29 44.766 217.254 44.856Z" fill="#FAFAFA"/>
<path d="M216 47.796C215.964 47.88 212.79 46.596 208.908 44.97C205.026 43.344 201.906 41.922 201.936 41.838C201.966 41.754 205.152 43.038 209.034 44.664C212.916 46.29 216.042 47.706 216 47.796Z" fill="#FAFAFA"/>
<path d="M214.764 50.73C214.728 50.82 211.548 49.53 207.666 47.91C203.784 46.29 200.664 44.862 200.7 44.778C200.736 44.694 203.91 45.978 207.798 47.604C211.686 49.23 214.8 50.646 214.764 50.73Z" fill="#FAFAFA"/>
<path d="M213.516 53.67C213.48 53.76 210.3 52.47 206.418 50.85C202.536 49.23 199.416 47.802 199.452 47.718C199.488 47.634 202.668 48.918 206.55 50.538C210.432 52.158 213.552 53.586 213.516 53.67Z" fill="#FAFAFA"/>
<path d="M155.532 64.932C167.909 64.932 177.942 54.8987 177.942 42.522C177.942 30.1453 167.909 20.112 155.532 20.112C143.155 20.112 133.122 30.1453 133.122 42.522C133.122 54.8987 143.155 64.932 155.532 64.932Z" fill="white"/>
<path d="M177.942 42.522C177.942 42.522 177.942 42.402 177.906 42.162C177.87 41.922 177.864 41.562 177.834 41.094C177.834 40.86 177.804 40.602 177.786 40.314C177.768 40.026 177.696 39.714 177.648 39.378C177.548 38.5978 177.391 37.8258 177.18 37.068C176.657 34.9721 175.819 32.9674 174.696 31.122C173.069 28.411 170.886 26.0754 168.292 24.2687C165.697 22.462 162.749 21.2253 159.642 20.64C158.713 20.4672 157.773 20.3589 156.828 20.316C156.348 20.316 155.862 20.25 155.376 20.256L153.9 20.334C153.654 20.334 153.402 20.334 153.156 20.382L152.412 20.496C151.92 20.58 151.416 20.64 150.918 20.742C148.875 21.2008 146.901 21.9228 145.044 22.89C144.576 23.142 144.126 23.442 143.658 23.718C143.43 23.862 143.19 23.988 142.968 24.15L142.314 24.642C140.498 25.9613 138.909 27.5684 137.61 29.4L137.1 30.084L136.65 30.816L136.2 31.524C136.042 31.7652 135.901 32.0179 135.78 32.28C135.534 32.802 135.282 33.324 135.024 33.852L134.424 35.496C133.692 37.7674 133.304 40.1356 133.272 42.522C133.304 44.9064 133.692 47.2726 134.424 49.542C134.622 50.094 134.826 50.646 135.024 51.192C135.222 51.738 135.528 52.242 135.78 52.758C135.9 53.0227 136.04 53.2776 136.2 53.52L136.65 54.258L137.094 54.99L137.61 55.674C138.276 56.5833 139.003 57.4454 139.788 58.254C140.582 59.025 141.426 59.7426 142.314 60.402L142.968 60.894C143.19 61.056 143.43 61.182 143.658 61.326C144.126 61.602 144.576 61.926 145.044 62.154C146.901 63.1211 148.875 63.8432 150.918 64.302C151.416 64.41 151.92 64.464 152.418 64.548L153.156 64.662C153.408 64.662 153.654 64.662 153.9 64.71L155.4 64.8C155.886 64.8 156.372 64.758 156.852 64.746C157.797 64.7011 158.737 64.5908 159.666 64.416C162.774 63.8328 165.723 62.597 168.318 60.7901C170.913 58.9832 173.095 56.6464 174.72 53.934C175.834 52.0909 176.663 50.0904 177.18 48C177.391 47.2422 177.548 46.4702 177.648 45.69C177.696 45.354 177.756 45.042 177.786 44.754C177.816 44.466 177.822 44.208 177.834 43.974C177.866 43.51 177.89 43.156 177.906 42.912C177.906 42.672 177.942 42.546 177.942 42.546C177.942 42.546 177.942 42.672 177.942 42.912C177.942 43.152 177.942 43.512 177.906 43.974C177.906 44.214 177.906 44.472 177.87 44.766C177.834 45.06 177.792 45.366 177.744 45.702C177.652 46.4777 177.503 47.2457 177.3 48C176.792 50.113 175.964 52.1363 174.846 54C173.221 56.7498 171.028 59.1221 168.415 60.9594C165.802 62.7967 162.828 64.0568 159.69 64.656C158.751 64.8324 157.801 64.9447 156.846 64.992C156.36 64.992 155.868 65.058 155.376 65.052L153.882 64.98C153.63 64.98 153.378 64.98 153.126 64.932L152.4 64.8C151.896 64.716 151.386 64.662 150.882 64.554C149.863 64.3309 148.861 64.0382 147.882 63.678C146.872 63.3176 145.888 62.8886 144.936 62.394C144.462 62.136 144 61.836 143.532 61.554C143.298 61.404 143.052 61.278 142.83 61.116L142.17 60.618C141.27 59.9507 140.414 59.2251 139.608 58.446C138.811 57.6254 138.072 56.7514 137.394 55.83L136.872 55.14L136.416 54.396L135.966 53.646C135.803 53.4022 135.661 53.1453 135.54 52.878C135.288 52.35 135.03 51.822 134.778 51.288L134.178 49.614C133.439 47.3131 133.046 44.9147 133.014 42.498C133.033 40.0893 133.411 37.6969 134.136 35.4L134.736 33.732L135.504 32.136C135.624 31.8695 135.764 31.6127 135.924 31.368L136.38 30.624L136.83 29.88L137.352 29.184C138.031 28.2657 138.771 27.3938 139.566 26.574C140.372 25.7949 141.228 25.0693 142.128 24.402L142.788 23.904C143.01 23.742 143.256 23.616 143.49 23.466C143.958 23.19 144.42 22.866 144.894 22.632C146.777 21.6565 148.777 20.9285 150.846 20.466C151.35 20.364 151.86 20.304 152.364 20.22L153.114 20.106C153.366 20.106 153.618 20.106 153.87 20.058L155.364 19.986C155.856 19.986 156.342 20.028 156.828 20.046C157.784 20.0959 158.736 20.2081 159.678 20.382C162.816 20.9812 165.79 22.2413 168.403 24.0786C171.016 25.9158 173.209 28.2882 174.834 31.038C175.952 32.9017 176.78 34.9249 177.288 37.038C177.491 37.8023 177.637 38.5803 177.726 39.366C177.774 39.708 177.828 40.02 177.852 40.308L177.888 41.094C177.888 41.556 177.918 41.91 177.924 42.162C177.93 42.414 177.942 42.522 177.942 42.522Z" fill="#263238"/>
<path d="M166.158 41.892C165.865 41.9999 165.564 42.0861 165.258 42.15L162.756 42.75C160.638 43.242 157.698 43.908 154.41 44.628L154.224 44.67V43.8C154.224 40.29 154.224 37.11 154.266 34.8C154.266 33.696 154.308 32.778 154.32 32.076C154.311 31.7429 154.331 31.4096 154.38 31.08C154.425 31.41 154.445 31.743 154.44 32.076C154.44 32.778 154.47 33.696 154.488 34.8C154.488 37.104 154.536 40.284 154.536 43.8V44.454L154.344 44.298C157.632 43.584 160.578 42.954 162.708 42.498L165.228 42C165.534 41.9353 165.845 41.8992 166.158 41.892Z" fill="#263238"/>
<path d="M179.544 51.762C179.566 51.6369 179.6 51.5143 179.646 51.396C179.712 51.162 179.85 50.796 179.97 50.376C180.356 49.1172 180.649 47.8318 180.846 46.53C181.532 42.2287 181.122 37.8239 179.653 33.7232C178.185 29.6225 175.706 25.9584 172.446 23.07C171.469 22.1963 170.43 21.3942 169.338 20.67C168.954 20.4 168.636 20.22 168.438 20.07C168.328 20.0067 168.224 19.9344 168.126 19.854C168.248 19.8903 168.363 19.9449 168.468 20.016C168.678 20.136 169.008 20.298 169.404 20.556C170.532 21.2498 171.599 22.0365 172.596 22.908C175.926 25.7888 178.453 29.4819 179.934 33.6285C181.414 37.775 181.796 42.2339 181.044 46.572C180.831 47.8719 180.512 49.1522 180.09 50.4C179.946 50.844 179.79 51.18 179.706 51.408C179.666 51.5318 179.611 51.6506 179.544 51.762Z" fill="#263238"/>
<path d="M183.84 40.734C183.792 40.734 183.762 39.84 183.582 38.412C183.342 36.5552 182.92 34.7264 182.322 32.952C181.719 31.185 180.941 29.4826 180 27.87C179.268 26.628 178.74 25.908 178.8 25.878C178.962 26.0132 179.103 26.1708 179.22 26.346C179.466 26.67 179.82 27.144 180.204 27.75C181.225 29.3455 182.051 31.0578 182.664 32.85C183.282 34.642 183.685 36.501 183.864 38.388C183.93 39.108 183.948 39.696 183.948 40.104C183.945 40.3183 183.909 40.5309 183.84 40.734Z" fill="#263238"/>
<path d="M133.158 29.544C133.122 29.6637 133.072 29.7786 133.008 29.886C132.9 30.108 132.714 30.42 132.522 30.846C130.263 35.3348 129.351 40.3817 129.897 45.3773C130.443 50.3729 132.424 55.1035 135.6 58.998C136.427 60.0204 137.325 60.9828 138.288 61.878C138.624 62.202 138.888 62.43 139.086 62.598C139.183 62.6792 139.273 62.7675 139.356 62.862C139.244 62.8033 139.139 62.7307 139.044 62.646C138.852 62.496 138.558 62.28 138.21 61.968C137.208 61.1018 136.279 60.1546 135.432 59.136C132.601 55.7634 130.691 51.715 129.888 47.3851C129.086 43.0551 129.419 38.5912 130.854 34.428C131.277 33.1739 131.805 31.9577 132.432 30.792C132.642 30.372 132.846 30.066 132.966 29.856C133.021 29.7469 133.086 29.6425 133.158 29.544Z" fill="#263238"/>
<path d="M127.164 39.75C127.218 39.75 127.104 40.644 127.056 42.084C126.992 43.954 127.119 45.8256 127.434 47.67C127.755 49.5162 128.262 51.3253 128.946 53.07C129.468 54.408 129.876 55.206 129.828 55.23C129.693 55.0676 129.58 54.888 129.492 54.696C129.294 54.342 129.03 53.82 128.742 53.154C127.989 51.425 127.445 49.6121 127.122 47.754C126.803 45.8879 126.707 43.9908 126.834 42.102C126.888 41.376 126.96 40.794 127.026 40.392C127.043 40.1728 127.089 39.9568 127.164 39.75Z" fill="#263238"/>
<path d="M174.084 46.2C173.238 46.026 172.554 45.876 172.554 45.87C172.554 45.864 173.244 45.996 174.09 46.17C174.936 46.344 175.62 46.488 175.614 46.494C175.608 46.5 174.924 46.398 174.084 46.2Z" fill="#263238"/>
<path d="M171.912 51.87C171.168 51.432 170.568 51.072 170.568 51.066C170.568 51.06 171.168 51.408 171.924 51.846C172.68 52.284 173.268 52.644 173.262 52.65C173.256 52.656 172.65 52.308 171.912 51.87Z" fill="#263238"/>
<path d="M168 56.502C167.436 55.842 166.986 55.302 166.992 55.302C166.998 55.302 167.46 55.824 168.018 56.502C168.576 57.18 169.032 57.702 169.02 57.702C169.008 57.702 168.6 57.156 168 56.502Z" fill="#263238"/>
<path d="M162.834 59.622C162.516 58.818 162.264 58.164 162.27 58.164C162.276 58.164 162.54 58.806 162.87 59.61C163.2 60.414 163.44 61.062 163.428 61.068C163.416 61.074 163.152 60.42 162.834 59.622Z" fill="#263238"/>
<path d="M156.918 60.888C156.882 60.024 156.858 59.328 156.864 59.328C156.87 59.328 156.912 60.024 156.948 60.888C156.984 61.752 157.014 62.448 157.008 62.448C157.002 62.448 156.96 61.752 156.918 60.888Z" fill="#263238"/>
<path d="M150.912 60.162C151.152 59.334 151.35 58.668 151.362 58.668C151.374 58.668 151.182 59.346 150.942 60.174C150.702 61.002 150.498 61.668 150.486 61.668C150.474 61.668 150.666 60.99 150.912 60.162Z" fill="#263238"/>
<path d="M145.458 57.534C145.956 56.826 146.364 56.262 146.376 56.268C146.388 56.274 145.98 56.868 145.482 57.552C144.984 58.236 144.6 58.8 144.6 58.8C144.6 58.8 144.96 58.236 145.458 57.534Z" fill="#263238"/>
<path d="M141.168 53.274C141.864 52.764 142.434 52.362 142.44 52.368C142.446 52.374 141.882 52.788 141.18 53.298C140.478 53.808 139.914 54.204 139.908 54.198C139.902 54.192 140.466 53.778 141.168 53.274Z" fill="#263238"/>
<path d="M138.48 47.85C139.308 47.598 139.98 47.4 139.98 47.406C139.98 47.412 139.314 47.628 138.486 47.88C137.658 48.132 136.992 48.324 136.992 48.318C136.992 48.312 137.658 48.102 138.48 47.85Z" fill="#263238"/>
<path d="M137.706 41.85C138.57 41.85 139.266 41.91 139.266 41.922C139.266 41.934 138.564 41.922 137.706 41.88C136.848 41.838 136.14 41.814 136.146 41.808C136.152 41.802 136.842 41.814 137.706 41.85Z" fill="#263238"/>
<path d="M138.918 35.916C139.728 36.228 140.376 36.48 140.376 36.516C140.376 36.552 139.716 36.276 138.906 35.97C138.096 35.664 137.454 35.406 137.454 35.4C137.454 35.394 138.114 35.61 138.918 35.916Z" fill="#263238"/>
<path d="M141.996 30.702C142.656 31.26 143.196 31.716 143.196 31.722C143.196 31.728 142.65 31.284 141.996 30.726C141.342 30.168 140.796 29.718 140.796 29.712C140.796 29.706 141.33 30.15 141.996 30.702Z" fill="#263238"/>
<path d="M146.592 26.778C147.036 27.516 147.396 28.116 147.39 28.122C147.384 28.128 147.012 27.522 146.568 26.79C146.124 26.058 145.764 25.452 145.77 25.446C145.776 25.44 146.148 26.04 146.592 26.778Z" fill="#263238"/>
<path d="M152.214 24.546C152.394 25.392 152.538 26.076 152.532 26.076C152.526 26.076 152.37 25.398 152.184 24.552C151.998 23.706 151.86 23.028 151.872 23.022C151.884 23.016 152.034 23.706 152.214 24.546Z" fill="#263238"/>
<path d="M158.256 24.27C158.154 25.128 158.064 25.818 158.058 25.818C158.052 25.818 158.124 25.122 158.232 24.264C158.34 23.406 158.424 22.716 158.43 22.716C158.436 22.716 158.364 23.4 158.256 24.27Z" fill="#263238"/>
<path d="M164.07 25.968C163.698 26.742 163.386 27.372 163.38 27.366C163.374 27.36 163.668 26.73 164.04 25.95C164.412 25.17 164.724 24.546 164.736 24.552C164.748 24.558 164.442 25.2 164.07 25.968Z" fill="#263238"/>
<path d="M169.008 29.46C168.408 30.06 167.904 30.564 167.898 30.558C167.892 30.552 168.384 30.048 168.99 29.436C169.596 28.824 170.094 28.332 170.1 28.338C170.106 28.344 169.62 28.848 169.008 29.46Z" fill="#263238"/>
<path d="M172.548 34.362C171.774 34.746 171.144 35.052 171.144 35.046C171.144 35.04 171.744 34.722 172.536 34.338C173.328 33.954 173.94 33.648 173.94 33.654C173.94 33.66 173.322 33.978 172.548 34.362Z" fill="#263238"/>
<path d="M174.312 40.152L172.758 40.338C172.758 40.338 173.448 40.23 174.306 40.122C175.164 40.014 175.854 39.924 175.854 39.93C175.854 39.936 175.164 40.038 174.312 40.152Z" fill="#263238"/>
<path d="M185.4 38.082C185.067 39.0951 184.637 40.0737 184.116 41.004L184.08 41.07L183.96 41.316L183.81 41.088C183.206 40.2454 182.688 39.345 182.262 38.4C182.954 39.1743 183.569 40.0143 184.098 40.908H183.828L183.864 40.836C184.286 39.8705 184.8 38.9481 185.4 38.082Z" fill="#263238"/>
<path d="M195.6 88.752H125.082C123.426 88.752 121.837 89.41 120.666 90.5814C119.494 91.7528 118.836 93.3414 118.836 94.998C118.836 96.6545 119.494 98.2432 120.666 99.4146C121.837 100.586 123.426 101.244 125.082 101.244H158.082L165.468 108.282V101.244H195.6C196.42 101.244 197.233 101.082 197.99 100.769C198.748 100.455 199.437 99.9946 200.017 99.4146C200.597 98.8346 201.057 98.146 201.371 97.3882C201.685 96.6304 201.846 95.8182 201.846 94.998C201.846 94.1777 201.685 93.3655 201.371 92.6077C201.057 91.8499 200.597 91.1614 200.017 90.5814C199.437 90.0014 198.748 89.5413 197.99 89.2274C197.233 88.9135 196.42 88.752 195.6 88.752Z" fill="#FAFAFA"/>
<path d="M195.6 88.752H195.828C196.057 88.7543 196.286 88.7724 196.512 88.806C197.403 88.9254 198.257 89.2388 199.014 89.724C199.738 90.1849 200.36 90.7892 200.842 91.4995C201.323 92.2098 201.654 93.0113 201.814 93.8544C201.975 94.6975 201.961 95.5645 201.773 96.402C201.585 97.2394 201.229 98.0297 200.724 98.724C200.042 99.6731 199.112 100.416 198.036 100.872C197.459 101.105 196.854 101.261 196.236 101.334C195.594 101.382 194.958 101.364 194.298 101.37H185.802H165.456L165.594 101.232C165.594 103.44 165.594 105.828 165.594 108.27V108.6L165.354 108.372L157.962 101.334L158.064 101.376H130.02H125.124C123.49 101.393 121.911 100.784 120.711 99.6731C119.512 98.5625 118.784 97.0349 118.675 95.404C118.567 93.7731 119.087 92.1626 120.129 90.9032C121.171 89.6438 122.656 88.8311 124.278 88.632C125.058 88.548 125.808 88.59 126.564 88.578H137.544L167.76 88.614L188.16 88.662L193.698 88.692H195.138C195.462 88.692 195.63 88.692 195.63 88.692H195.138H193.698L188.16 88.722L167.76 88.776H137.544H126.564C125.814 88.776 125.046 88.776 124.32 88.83C122.817 89.0168 121.439 89.7595 120.456 90.912C119.699 91.8 119.213 92.8866 119.056 94.0427C118.898 95.1988 119.076 96.3758 119.567 97.434C120.059 98.4922 120.843 99.3871 121.828 100.013C122.814 100.638 123.957 100.967 125.124 100.962H130.02H158.064H158.124L158.166 100.998L165.552 108.042L165.312 108.144C165.312 105.702 165.312 103.314 165.312 101.106V100.974H165.444H185.79H194.286C194.94 100.974 195.588 100.974 196.206 100.974C196.809 100.907 197.4 100.76 197.964 100.536C199.208 100.012 200.247 99.0973 200.923 97.9295C201.6 96.7617 201.876 95.4051 201.711 94.0657C201.546 92.7263 200.949 91.4773 200.009 90.5085C199.07 89.5397 197.84 88.904 196.506 88.698C195.912 88.758 195.6 88.8 195.6 88.752Z" fill="#263238"/>
<path d="M155.922 99.414H125.04C124.46 99.4148 123.885 99.3011 123.349 99.0795C122.813 98.8578 122.326 98.5326 121.916 98.1224C121.505 97.7121 121.18 97.225 120.959 96.6889C120.737 96.1527 120.623 95.5782 120.624 94.998C120.627 93.8294 121.094 92.7099 121.922 91.8853C122.75 91.0607 123.871 90.5984 125.04 90.6H155.922C156.502 90.5992 157.076 90.7127 157.612 90.934C158.147 91.1552 158.634 91.48 159.044 91.8895C159.454 92.2991 159.78 92.7855 160.002 93.321C160.224 93.8564 160.338 94.4304 160.338 95.01C160.337 95.5891 160.222 96.1624 160 96.6972C159.778 97.2319 159.452 97.7176 159.042 98.1266C158.632 98.5355 158.145 98.8597 157.61 99.0806C157.075 99.3015 156.501 99.4148 155.922 99.414Z" fill="#5A1236"/>
<path d="M158.508 82.314L157.464 85.506H156.672L155.97 83.346L155.244 85.506H154.458L153.408 82.314H154.2L154.92 84.558L155.67 82.314H156.354L157.086 84.576L157.824 82.314H158.508Z" fill="#263238"/>
<path d="M158.682 83.91C158.663 83.5612 158.749 83.2147 158.929 82.9152C159.108 82.6158 159.374 82.3771 159.691 82.2301C160.008 82.0831 160.361 82.0346 160.706 82.0907C161.051 82.1468 161.371 82.3051 161.625 82.545C161.879 82.7849 162.055 83.0955 162.13 83.4365C162.206 83.7775 162.177 84.1334 162.048 84.4581C161.919 84.7827 161.696 85.0613 161.407 85.2577C161.118 85.4542 160.777 85.5595 160.428 85.56C160.203 85.5731 159.979 85.5401 159.767 85.4631C159.556 85.386 159.362 85.2666 159.199 85.112C159.035 84.9575 158.905 84.7711 158.816 84.5644C158.727 84.3577 158.682 84.135 158.682 83.91ZM161.424 83.91C161.419 83.7141 161.357 83.5239 161.245 83.3633C161.132 83.2027 160.975 83.0788 160.793 83.0071C160.611 82.9354 160.411 82.919 160.219 82.9601C160.028 83.0012 159.853 83.0979 159.716 83.2381C159.579 83.3783 159.486 83.5558 159.45 83.7483C159.413 83.9409 159.434 84.1399 159.51 84.3205C159.586 84.5011 159.714 84.6552 159.877 84.7637C160.041 84.8721 160.232 84.9299 160.428 84.93C160.56 84.9302 160.69 84.9035 160.811 84.8517C160.933 84.7999 161.042 84.724 161.133 84.6285C161.224 84.5331 161.294 84.4202 161.34 84.2967C161.386 84.1732 161.407 84.0416 161.4 83.91H161.424Z" fill="#263238"/>
<path d="M164.766 85.506L164.166 84.618H163.488V85.506H162.75V82.314H164.13C164.982 82.314 165.516 82.758 165.516 83.472C165.525 83.688 165.467 83.9014 165.348 84.0823C165.23 84.2632 165.058 84.4023 164.856 84.48L165.576 85.506H164.766ZM164.07 82.914H163.47V84.03H164.07C164.52 84.03 164.748 83.82 164.748 83.472C164.748 83.124 164.52 82.914 164.07 82.914Z" fill="#263238"/>
<path d="M167.244 84.252L166.812 84.696V85.506H166.08V82.314H166.8V83.802L168.216 82.314H169.038L167.712 83.736L169.116 85.506H168.252L167.244 84.252Z" fill="#263238"/>
<path d="M187.512 96.168H186.6L186.378 97.32H185.73L185.964 96.168H183.372L183.456 95.706L186.42 92.652H187.2L184.362 95.598H186.12L186.324 94.584H186.924L186.72 95.598H187.608L187.512 96.168Z" fill="#263238"/>
<path d="M189.432 93.234L189.048 94.512H189.498C190.698 94.512 191.232 95.004 191.232 95.76C191.232 96.726 190.44 97.368 189.246 97.368C188.947 97.3854 188.648 97.3412 188.368 97.2379C188.087 97.1347 187.83 96.9747 187.614 96.768L187.968 96.252C188.141 96.4252 188.348 96.5601 188.577 96.648C188.805 96.7358 189.05 96.7747 189.294 96.762C190.098 96.762 190.566 96.408 190.566 95.814C190.566 95.352 190.236 95.076 189.366 95.076H188.238L188.964 92.634H191.592L191.484 93.234H189.432Z" fill="#263238"/>
<path d="M192 94.14C191.98 93.9553 191.998 93.7686 192.052 93.5909C192.106 93.4133 192.195 93.2484 192.315 93.1061C192.434 92.9638 192.581 92.847 192.746 92.7628C192.912 92.6786 193.093 92.6287 193.278 92.616C193.409 92.6107 193.54 92.634 193.661 92.6842C193.782 92.7344 193.891 92.8103 193.98 92.9067C194.069 93.0032 194.136 93.1178 194.177 93.2427C194.217 93.3676 194.23 93.4997 194.214 93.63C194.235 93.8143 194.218 94.0009 194.165 94.1786C194.111 94.3562 194.022 94.5212 193.903 94.6636C193.785 94.806 193.638 94.9229 193.473 95.0072C193.308 95.0914 193.127 95.1414 192.942 95.154C192.811 95.1592 192.68 95.1359 192.558 95.0857C192.437 95.0356 192.328 94.9597 192.238 94.8634C192.149 94.7671 192.081 94.6526 192.04 94.5278C191.999 94.4029 191.985 94.2706 192 94.14ZM196.14 92.652H196.674L192.6 97.32H192.054L196.14 92.652ZM193.8 93.666C193.8 93.222 193.596 92.994 193.26 92.994C192.72 92.994 192.456 93.594 192.456 94.104C192.456 94.614 192.66 94.776 192.996 94.776C193.53 94.8 193.8 94.2 193.8 93.666ZM194.538 96.342C194.517 96.1575 194.534 95.9707 194.588 95.7931C194.642 95.6154 194.731 95.4505 194.851 95.3085C194.971 95.1665 195.118 95.0503 195.284 94.967C195.45 94.8837 195.631 94.8351 195.816 94.824C195.947 94.8186 196.078 94.8418 196.199 94.892C196.32 94.9423 196.428 95.0183 196.517 95.1149C196.605 95.2115 196.672 95.3262 196.711 95.4511C196.751 95.576 196.763 95.708 196.746 95.838C196.767 96.022 196.75 96.2083 196.696 96.3856C196.643 96.5629 196.554 96.7275 196.435 96.8694C196.316 97.0114 196.17 97.1277 196.005 97.2113C195.839 97.2949 195.659 97.3442 195.474 97.356C195.342 97.3633 195.21 97.3414 195.088 97.2919C194.965 97.2425 194.855 97.1667 194.765 97.0699C194.675 96.9731 194.608 96.8577 194.568 96.7319C194.527 96.6061 194.515 96.473 194.532 96.342H194.538ZM196.338 95.868C196.338 95.43 196.128 95.196 195.798 95.196C195.264 95.196 194.988 95.796 194.988 96.312C194.988 96.828 195.204 96.984 195.528 96.984C196.038 96.984 196.308 96.378 196.308 95.868H196.338Z" fill="#263238"/>
<g opacity="0.3">
<path d="M126.234 90.588L123.372 99.414H126.234L128.922 90.588H126.234Z" fill="white"/>
</g>
<g opacity="0.3">
<path d="M133.302 90.588L130.44 99.414H133.302L135.99 90.588H133.302Z" fill="white"/>
</g>
<g opacity="0.3">
<path d="M140.364 90.588L137.508 99.414H140.364L143.058 90.588H140.364Z" fill="white"/>
</g>
<g opacity="0.3">
<path d="M147.432 90.588L144.576 99.414H147.432L150.126 90.588H147.432Z" fill="white"/>
</g>
<g opacity="0.3">
<path d="M154.5 90.588L151.638 99.414H154.5L157.194 90.588H154.5Z" fill="white"/>
</g>
<path d="M47.4001 215.508C47.4001 215.508 62.5982 222.354 78.4261 222.354C93.0781 222.354 108.588 214.98 108.588 214.98L47.4001 215.508Z" fill="#E0E0E0"/>
<path d="M80.0761 215.64H73.8V281.382H80.0761V215.64Z" fill="#E0E0E0"/>
<path d="M104.784 277.524H49.0801V281.376H104.784V277.524Z" fill="#E0E0E0"/>
<path d="M55.8962 282.642C55.8985 283.484 55.6509 284.308 55.1847 285.009C54.7184 285.711 54.0545 286.258 53.277 286.581C52.4996 286.905 51.6436 286.991 50.8174 286.827C49.9913 286.664 49.2322 286.259 48.6363 285.664C48.0404 285.069 47.6345 284.311 47.4701 283.485C47.3056 282.659 47.39 281.803 47.7126 281.025C48.0351 280.247 48.5813 279.582 49.2819 279.115C49.9825 278.648 50.806 278.399 51.6482 278.4C52.7733 278.402 53.852 278.849 54.6481 279.644C55.4442 280.439 55.893 281.517 55.8962 282.642Z" fill="#263238"/>
<path d="M80.652 282.642C80.652 283.483 80.4025 284.306 79.9351 285.005C79.4677 285.705 78.8033 286.25 78.026 286.572C77.2487 286.894 76.3933 286.978 75.5681 286.814C74.7429 286.65 73.9849 286.245 73.39 285.65C72.7951 285.055 72.3899 284.297 72.2258 283.472C72.0616 282.647 72.1459 281.791 72.4679 281.014C72.7898 280.237 73.3351 279.572 74.0346 279.105C74.7342 278.637 75.5567 278.388 76.398 278.388C77.5263 278.388 78.6083 278.836 79.4061 279.634C80.2039 280.432 80.652 281.514 80.652 282.642Z" fill="#263238"/>
<path d="M109.326 282.642C109.326 283.483 109.077 284.306 108.609 285.005C108.142 285.705 107.477 286.25 106.7 286.572C105.923 286.894 105.067 286.978 104.242 286.814C103.417 286.65 102.659 286.245 102.064 285.65C101.469 285.055 101.064 284.297 100.9 283.472C100.736 282.647 100.82 281.791 101.142 281.014C101.464 280.237 102.009 279.572 102.709 279.105C103.408 278.637 104.231 278.388 105.072 278.388C106.2 278.388 107.282 278.836 108.08 279.634C108.878 280.432 109.326 281.514 109.326 282.642Z" fill="#263238"/>
<path d="M78.4201 239.298H69.8821V242.832H78.4201V239.298Z" fill="#E0E0E0"/>
<path d="M71.4361 236.826H68.3281V245.304H71.4361V236.826Z" fill="#E0E0E0"/>
<path d="M45.9121 115.446H71.4002V207.144H38.9521V122.4C38.9553 120.556 39.6898 118.788 40.9946 117.484C42.2993 116.181 44.0678 115.448 45.9121 115.446Z" fill="#455A64"/>
<path d="M46.1282 205.752C46.0442 205.752 45.9722 185.856 45.9722 161.316C45.9722 136.776 46.0442 116.874 46.1282 116.874C46.2122 116.874 46.2842 136.77 46.2842 161.316C46.2842 185.862 46.2002 205.752 46.1282 205.752Z" fill="#263238"/>
<path d="M38.9521 206.958H119.238V216.93H43.7221C42.4491 216.93 41.2282 216.424 40.328 215.524C39.4278 214.624 38.9221 213.403 38.9221 212.13V206.934L38.9521 206.958Z" fill="#455A64"/>
<path d="M84.3961 79.2L80.9161 112.374C80.3161 118.02 80.6101 126.426 89.5741 126.954C97.3741 126.828 100.11 119.694 100.656 114.432C100.92 111.93 101.136 109.848 101.184 109.596C101.184 109.596 109.71 109.686 111.198 101.388C111.918 97.38 112.722 89.004 113.364 81.42C113.696 77.4898 112.536 73.5786 110.114 70.4654C107.693 67.3521 104.187 65.2651 100.296 64.62L99.4921 64.482C90.7621 63.534 85.0861 70.428 84.3961 79.2Z" fill="#FFBE9D"/>
<path d="M101.184 109.578C97.3458 108.929 93.7744 107.193 90.894 104.574C90.894 104.574 92.52 111.084 100.938 111.72L101.184 109.578Z" fill="#EB996E"/>
<path d="M98.754 83.508C98.574 83.658 97.68 82.794 96.282 82.626C94.884 82.458 93.774 83.052 93.642 82.86C93.576 82.77 93.78 82.476 94.242 82.2C94.8934 81.843 95.6414 81.7022 96.378 81.798C97.1071 81.8895 97.7881 82.2111 98.322 82.716C98.736 83.106 98.844 83.436 98.754 83.508Z" fill="#263238"/>
<path d="M98.6162 86.718C98.5702 87.0113 98.4115 87.2752 98.1739 87.4533C97.9364 87.6315 97.6387 87.71 97.3442 87.672C97.2 87.6592 97.0598 87.6179 96.9317 87.5505C96.8036 87.4831 96.6902 87.3908 96.5981 87.2792C96.5059 87.1675 96.4369 87.0386 96.3951 86.9001C96.3532 86.7615 96.3393 86.616 96.3542 86.472C96.4016 86.1793 96.5606 85.9164 96.7978 85.7385C97.035 85.5606 97.3319 85.4816 97.6262 85.518C97.7704 85.5307 97.9106 85.572 98.0387 85.6395C98.1668 85.7069 98.2802 85.7992 98.3723 85.9108C98.4644 86.0225 98.5334 86.1513 98.5753 86.2899C98.6172 86.4285 98.6311 86.574 98.6162 86.718Z" fill="#263238"/>
<path d="M101.364 93.6C102.072 93.5025 102.789 93.4924 103.5 93.57C103.83 93.57 104.154 93.57 104.244 93.366C104.326 93.0316 104.305 92.6803 104.184 92.358L103.638 89.718C102.882 85.956 102.396 82.89 102.552 82.86C102.708 82.83 103.434 85.86 104.184 89.61C104.364 90.54 104.532 91.41 104.694 92.268C104.833 92.6959 104.816 93.1594 104.646 93.576C104.582 93.6815 104.494 93.7709 104.39 93.8375C104.287 93.904 104.169 93.9459 104.046 93.96C103.857 93.9847 103.665 93.9847 103.476 93.96C102.76 93.927 102.051 93.8061 101.364 93.6Z" fill="#263238"/>
<path d="M98.6462 78.186C98.4782 78.486 97.3802 78.144 96.0302 78.09C94.6802 78.036 93.5522 78.228 93.4202 77.916C93.3662 77.766 93.6002 77.502 94.0862 77.268C94.7167 76.9779 95.4097 76.8501 96.1022 76.896C96.7955 76.9325 97.4692 77.1385 98.0642 77.496C98.5142 77.754 98.7182 78.042 98.6462 78.186Z" fill="#263238"/>
<path d="M111.708 82.008C111.54 82.248 110.472 81.864 109.152 81.702C107.832 81.54 106.716 81.606 106.596 81.33C106.548 81.198 106.788 80.994 107.268 80.832C107.914 80.6431 108.593 80.594 109.26 80.688C109.933 80.7744 110.58 80.9991 111.162 81.348C111.6 81.63 111.786 81.894 111.708 82.008Z" fill="#263238"/>
<path d="M84.0481 85.452C83.9161 85.362 78.6181 82.812 77.8561 88.524C77.0941 94.236 82.9861 93.822 83.0161 93.66C83.0461 93.498 84.0481 85.452 84.0481 85.452Z" fill="#FFBE9D"/>
<path d="M81.5641 91.266C81.5641 91.266 81.4501 91.32 81.2761 91.374C81.0246 91.4435 80.7559 91.4135 80.5261 91.29C79.9261 90.99 79.5721 89.964 79.6861 88.932C79.7355 88.4387 79.8955 87.963 80.1541 87.54C80.2311 87.3686 80.3491 87.2187 80.4976 87.1036C80.6462 86.9885 80.8208 86.9117 81.0061 86.88C81.1234 86.8646 81.2425 86.8911 81.3423 86.9547C81.4422 87.0184 81.5164 87.1151 81.5521 87.228C81.6121 87.396 81.5521 87.51 81.5881 87.522C81.6241 87.534 81.7261 87.444 81.7081 87.198C81.6984 87.0532 81.6366 86.9167 81.5341 86.814C81.3918 86.6733 81.2002 86.5936 81.0001 86.592C80.7592 86.6085 80.5266 86.6859 80.324 86.8172C80.1214 86.9484 79.9556 87.129 79.8421 87.342C79.532 87.8023 79.3403 88.3319 79.2841 88.884C79.1701 90.042 79.6141 91.2 80.4061 91.548C80.5534 91.6131 80.7135 91.6441 80.8745 91.6389C81.0355 91.6338 81.1932 91.5924 81.3361 91.518C81.5341 91.404 81.6001 91.278 81.5641 91.266Z" fill="#EB996E"/>
<path d="M99.6422 97.422C99.7202 97.284 98.6281 96.822 97.9321 95.712C97.6477 95.2203 97.4279 94.694 97.2782 94.146C97.1522 93.714 97.0501 93.438 96.9841 93.45C96.9181 93.462 96.9121 93.75 96.9841 94.212C97.0554 94.8306 97.2601 95.4263 97.5841 95.958C97.9137 96.4937 98.3851 96.9277 98.9462 97.212C99.3301 97.428 99.6002 97.47 99.6422 97.422Z" fill="#263238"/>
<path d="M77.2802 75.462C78.6662 73.548 79.1642 71.16 80.0282 68.964C80.8922 66.768 82.3622 64.548 84.6482 63.96L84.6962 63.99C86.7542 63.39 89.2022 63.588 90.6962 65.118C91.3742 62.172 94.2062 60.054 97.1882 59.562C100.17 59.07 104.79 59.952 107.478 61.362C109.554 62.43 111.474 64.398 113.766 67.248C114.738 68.4461 115.609 69.7224 116.37 71.064L118.17 79.11L115.626 83.004C115.472 83.2764 115.303 83.5407 115.122 83.796L112.374 92.25C112.464 89.886 113.394 81.714 113.484 79.344C111.719 79.128 110.015 78.5574 108.476 77.6666C106.937 76.7758 105.593 75.583 104.526 74.16C103.374 72.618 102.528 70.74 100.884 69.732C98.7722 68.43 96.0842 68.982 93.6422 69.582L93.7502 69.498C92.4783 69.9506 91.305 70.6431 90.2942 71.538C90.3879 76.2326 89.469 80.8924 87.6002 85.2C87.3182 85.848 86.5982 87.168 85.9142 87.366C84.5822 87.744 84.3542 86.4 83.6462 85.632C83.1242 85.068 82.2842 84.918 81.3542 84.84C80.8949 82.8298 80.5543 80.7943 80.3342 78.744C79.5398 78.9077 78.7184 78.8851 77.9342 78.678L78.8402 76.974C78.5122 77.1718 78.1463 77.2985 77.7662 77.346C77.5679 77.3709 77.3668 77.3312 77.1929 77.2329C77.0189 77.1345 76.8812 76.9827 76.8002 76.8C76.6502 76.338 76.9922 75.864 77.2802 75.462Z" fill="#263238"/>
<path d="M93.2522 66.318C92.9324 66.5263 92.6276 66.7569 92.3402 67.008C91.6063 67.7458 91.077 68.6618 90.8042 69.666C90.5956 70.3523 90.4569 71.0578 90.3902 71.772C90.3182 72.546 90.3062 73.374 90.2822 74.25C90.2755 75.1691 90.2113 76.0869 90.0902 76.998C90.0186 77.481 89.9123 77.9583 89.7722 78.426C89.6506 78.9298 89.4028 79.3944 89.0522 79.776C88.8933 79.9224 88.6997 80.0257 88.4896 80.0761C88.2796 80.1265 88.0601 80.1224 87.8522 80.064C87.448 79.9508 87.0933 79.7058 86.8442 79.368C86.4507 78.7009 86.2435 77.9405 86.2442 77.166L86.4122 77.202C86.0948 77.8112 85.6906 78.371 85.2122 78.864C84.7578 79.3192 84.1452 79.5814 83.5022 79.596C83.2047 79.5982 82.9122 79.5194 82.6562 79.368C82.4195 79.2157 82.2336 78.9964 82.1222 78.738C82.0189 78.4982 81.9816 78.2351 82.0142 77.976C82.0522 77.7441 82.1687 77.5323 82.3442 77.376L82.4222 77.466C81.7316 78.1377 80.8671 78.6032 79.9262 78.81C79.8602 78.8306 79.7913 78.8407 79.7222 78.84C79.7843 78.8145 79.8486 78.7944 79.9142 78.78C80.0462 78.738 80.2382 78.684 80.4782 78.588C81.172 78.3161 81.8044 77.9081 82.3382 77.388L82.4222 77.478C82.2688 77.6407 82.1697 77.8469 82.1385 78.0683C82.1074 78.2897 82.1457 78.5153 82.2482 78.714C82.3504 78.9446 82.5197 79.1391 82.7342 79.272C82.9663 79.4098 83.2322 79.4804 83.5022 79.476C84.1021 79.4524 84.6705 79.2014 85.0922 78.774C85.548 78.2893 85.9319 77.7417 86.2322 77.148L86.3762 76.89V77.184C86.3892 77.9263 86.5961 78.6523 86.9762 79.29C87.2045 79.5808 87.5199 79.7911 87.8762 79.89C88.0557 79.9424 88.2457 79.9472 88.4277 79.9041C88.6096 79.861 88.7773 79.7714 88.9142 79.644C89.2374 79.2858 89.4663 78.8528 89.5802 78.384C89.7203 77.9244 89.8266 77.4551 89.8982 76.98C90.0189 76.0768 90.085 75.1671 90.0962 74.256C90.0962 73.38 90.1442 72.552 90.2222 71.772C90.2977 71.0468 90.4465 70.3312 90.6662 69.636C90.9584 68.6174 91.5177 67.6956 92.2862 66.966C92.5693 66.6971 92.8959 66.478 93.2522 66.318Z" fill="#455A64"/>
<path d="M118.374 76.848L118.302 76.896L118.08 77.028C117.961 77.1028 117.837 77.169 117.708 77.226C117.552 77.292 117.378 77.382 117.174 77.448C116.004 77.8498 114.753 77.957 113.532 77.76C111.716 77.4705 110.022 76.662 108.654 75.432C107.01 73.9141 105.693 72.0766 104.784 70.032C104.268 68.964 103.866 67.878 103.41 66.87C103 65.8888 102.448 64.9731 101.772 64.152C101.17 63.4058 100.387 62.8255 99.4981 62.466C99.0965 62.3131 98.6733 62.224 98.2441 62.202C97.8408 62.1862 97.4372 62.2246 97.0441 62.316C95.8567 62.6018 94.8214 63.3263 94.1461 64.344C93.9198 64.7223 93.7366 65.1248 93.6001 65.544C93.5962 65.5161 93.5962 65.4879 93.6001 65.46C93.6001 65.388 93.6361 65.31 93.6601 65.208C93.7559 64.8857 93.8931 64.5771 94.0681 64.29C94.3473 63.8332 94.7024 63.4273 95.1181 63.09C95.6689 62.6456 96.3097 62.3262 96.9961 62.154C97.8334 61.9381 98.7165 61.982 99.5281 62.28C100.444 62.647 101.253 63.2393 101.88 64.002C102.568 64.8343 103.132 65.7619 103.554 66.756C104.016 67.776 104.418 68.856 104.928 69.918C105.831 71.9366 107.128 73.7542 108.744 75.264C110.089 76.4829 111.754 77.2908 113.544 77.592C114.747 77.8001 115.982 77.7136 117.144 77.34C117.96 77.094 118.362 76.8 118.374 76.848Z" fill="#455A64"/>
<path d="M111.474 85.2C111.294 85.356 110.4 84.486 109.002 84.324C107.604 84.162 106.494 84.744 106.368 84.552C106.302 84.462 106.5 84.174 106.968 83.892C107.62 83.5378 108.368 83.3992 109.104 83.496C109.834 83.5817 110.516 83.9017 111.048 84.408C111.456 84.81 111.564 85.146 111.474 85.2Z" fill="#263238"/>
<path d="M110.286 87.804C110.242 88.0981 110.083 88.3628 109.845 88.5413C109.607 88.7197 109.309 88.7976 109.014 88.758C108.87 88.7453 108.73 88.704 108.602 88.6365C108.475 88.5689 108.362 88.4766 108.27 88.3648C108.178 88.2531 108.11 88.1241 108.069 87.9856C108.028 87.8471 108.014 87.7017 108.03 87.558C108.076 87.2658 108.234 87.003 108.47 86.825C108.706 86.6469 109.003 86.5677 109.296 86.604C109.44 86.6168 109.581 86.6581 109.709 86.7255C109.837 86.7929 109.95 86.8852 110.042 86.9968C110.134 87.1085 110.203 87.2374 110.245 87.3759C110.287 87.5145 110.301 87.66 110.286 87.804Z" fill="#263238"/>
<path d="M115.8 70.002C116.4 71.016 117.414 71.988 118.596 71.988C119.029 71.9427 119.459 71.8644 119.88 71.754C120.264 72.042 120.024 73.434 119.7 73.788C119.4 74.0876 119.075 74.3606 118.728 74.604C120.024 75.486 121.314 75.252 122.832 74.874C122.555 76.1069 121.96 77.2458 121.107 78.1774C120.253 79.109 119.17 79.8008 117.966 80.184C117.592 80.3369 117.187 80.3987 116.784 80.3643C116.381 80.3298 115.993 80.2002 115.65 79.986C115.151 79.4725 114.858 78.7934 114.828 78.078C114.432 75.4972 114.358 72.8772 114.606 70.278L115.8 70.002Z" fill="#263238"/>
<path d="M100.302 117.36C100.302 117.36 105.582 119.502 108.588 126.81C110.7 131.946 122.448 148.158 122.448 148.158L153.684 155.094L154.752 165.06L104.79 164.646L97.8481 142.536L100.302 117.36Z" fill="#5A1236"/>
<path d="M79.266 108.15L73.722 110.478C68.592 112.626 62.028 117.576 59.826 122.688C54.54 135 49.752 150.822 47.916 164.82C46.062 178.938 49.752 199.83 49.752 199.83L96.636 173.04L93.894 171.126L102.78 122.79L101.124 116.94L102.228 111.99C102.228 111.99 89.79 106.998 80.73 103.416L79.266 108.15Z" fill="#5A1236"/>
<g opacity="0.3">
<path d="M74.79 185.862C74.962 183.462 75.134 181.048 75.306 178.62C74.7561 179.144 74.0364 179.452 73.278 179.49C74.4509 178.371 75.4917 177.12 76.38 175.764L74.244 176.682C74.9974 176.103 75.6122 175.363 76.044 174.516C74.898 173.622 73.284 173.772 71.844 173.916C64.434 174.666 56.958 174.168 49.518 173.67C48.7728 173.627 48.0459 173.423 47.388 173.07C47.388 173.07 47.238 171.03 47.568 170.268C47.898 169.506 48.414 169.728 49.194 169.446C49.9859 169.205 50.8084 169.08 51.636 169.074C60.69 168.594 69.762 169.338 78.798 170.088C79.3614 170.079 79.9147 170.238 80.388 170.544C81.126 171.144 81.06 172.272 80.934 173.214C80.47 176.598 80.01 179.98 79.554 183.36" fill="black"/>
</g>
<path d="M102.228 120.846C102.227 120.999 102.213 121.152 102.186 121.302L101.994 122.592C101.826 123.708 101.556 125.328 101.202 127.32C100.494 131.31 99.432 136.8 98.202 142.848C96.972 148.896 95.724 154.362 94.83 158.31C94.38 160.26 94.014 161.85 93.75 162.984C93.624 163.512 93.522 163.932 93.444 164.25C93.4161 164.4 93.3718 164.547 93.312 164.688C93.3276 164.537 93.3517 164.387 93.384 164.238C93.444 163.914 93.528 163.488 93.636 162.96C93.87 161.814 94.236 160.224 94.614 158.262L97.866 142.8C99.126 136.752 100.224 131.268 100.986 127.29C101.352 125.328 101.658 123.726 101.874 122.58C101.976 122.052 102.06 121.626 102.12 121.302C102.141 121.147 102.177 120.994 102.228 120.846Z" fill="#263238"/>
<path d="M59.8262 189.468C59.9101 189.364 60.0046 189.27 60.1082 189.186L60.9482 188.412C61.3082 188.076 61.7642 187.674 62.3102 187.212C62.8562 186.75 63.4562 186.234 64.1642 185.7C65.5502 184.59 67.2602 183.348 69.2102 182.046C71.1602 180.744 73.4102 179.424 75.7682 178.152C78.1262 176.88 80.5202 175.824 82.6922 174.93C84.8642 174.036 86.8562 173.346 88.5542 172.83C89.3942 172.548 90.1742 172.344 90.8522 172.152C91.5302 171.96 92.1182 171.81 92.5982 171.696L93.7142 171.444C93.8407 171.404 93.9717 171.38 94.1042 171.372C93.983 171.429 93.8563 171.473 93.7262 171.504L92.6282 171.816C92.1542 171.948 91.5722 172.11 90.9002 172.32C90.2282 172.53 89.4602 172.746 88.6202 173.04C86.9402 173.586 84.9602 174.312 82.8002 175.2C80.6402 176.088 78.3062 177.174 75.9182 178.428C73.5302 179.682 71.3282 181.014 69.3662 182.286C67.4042 183.558 65.6942 184.794 64.2962 185.886C63.5822 186.408 62.9702 186.924 62.4182 187.356C61.8662 187.788 61.4042 188.184 61.0262 188.502L60.1502 189.228C60.0511 189.319 59.9424 189.4 59.8262 189.468Z" fill="#263238"/>
<path d="M83.8922 171.774C83.9342 171.852 79.3742 174.414 73.6922 177.498C68.0102 180.582 63.4022 183.024 63.3602 182.946C63.3182 182.868 67.8781 180.312 73.5602 177.222C79.2421 174.132 83.8502 171.702 83.8922 171.774Z" fill="#263238"/>
<g opacity="0.3">
<path d="M67.416 134.742C70.326 147.342 79.224 158.586 91.068 163.716C82.5475 154.596 74.6459 144.916 67.416 134.742Z" fill="black"/>
</g>
<g opacity="0.3">
<path d="M101.484 125.166C102.63 130.494 101.778 137.166 99.0842 141.888L98.4182 140.508C99.3602 136.506 100.71 129.408 101.46 125.166" fill="black"/>
</g>
<path d="M126.408 252.306L120.786 269.214C120.786 269.214 136.092 280.614 135.354 283.836L102.174 274.116L109.848 247.404L126.408 252.306Z" fill="#455A64"/>
<g opacity="0.3">
<path d="M126.408 252.306L120.786 269.214C120.786 269.214 136.092 280.614 135.354 283.836L102.174 274.116L109.848 247.404L126.408 252.306Z" fill="black"/>
</g>
<path d="M110.946 264.774C110.599 264.777 110.265 264.909 110.009 265.144C109.753 265.379 109.593 265.7 109.56 266.046C109.55 266.393 109.674 266.731 109.906 266.989C110.139 267.247 110.462 267.406 110.808 267.432C111.177 267.428 111.531 267.286 111.801 267.036C112.072 266.785 112.239 266.443 112.272 266.076C112.244 265.713 112.077 265.375 111.805 265.133C111.533 264.892 111.178 264.765 110.814 264.78" fill="#E0E0E0"/>
<g opacity="0.6">
<path d="M102.174 274.116L103.05 271.452L134.538 281.766C134.538 281.766 135.828 282.84 135.354 283.836L102.174 274.116Z" fill="white"/>
</g>
<path d="M121.374 269.202C121.32 269.364 120.492 269.202 119.538 269.49C118.584 269.778 117.966 270.33 117.834 270.222C117.702 270.114 118.218 269.25 119.376 268.926C120.534 268.602 121.452 269.064 121.374 269.202Z" fill="#263238"/>
<path d="M124.434 271.662C124.434 271.83 123.642 271.902 122.892 272.424C122.142 272.946 121.77 273.624 121.608 273.57C121.446 273.516 121.608 272.574 122.562 271.938C123.516 271.302 124.476 271.506 124.434 271.662Z" fill="#263238"/>
<path d="M125.19 276.408C125.034 276.408 125.046 275.526 125.718 274.758C126.39 273.99 127.26 273.858 127.284 274.014C127.308 274.17 126.684 274.506 126.162 275.142C125.64 275.778 125.358 276.438 125.19 276.408Z" fill="#263238"/>
<path d="M122.226 265.2C122.118 265.332 121.44 264.888 120.504 264.684C119.568 264.48 118.77 264.558 118.704 264.39C118.638 264.222 119.514 263.85 120.612 264.108C121.71 264.366 122.346 265.104 122.226 265.2Z" fill="#263238"/>
<path d="M136.086 259.854L135.384 277.662C135.384 277.662 153.252 284.352 153.438 287.658L118.866 287.538L118.8 259.746L136.086 259.854Z" fill="#455A64"/>
<path d="M124.698 276.126C124.365 276.225 124.08 276.445 123.898 276.741C123.716 277.038 123.651 277.392 123.714 277.734C123.802 278.071 124.017 278.361 124.313 278.544C124.608 278.727 124.964 278.789 125.304 278.718C125.656 278.612 125.956 278.379 126.146 278.064C126.335 277.749 126.401 277.375 126.33 277.014C126.204 276.673 125.95 276.394 125.622 276.236C125.294 276.078 124.918 276.054 124.572 276.168" fill="#E0E0E0"/>
<g opacity="0.6">
<path d="M118.866 287.538L118.968 284.736L152.082 285.894C152.082 285.894 153.618 286.572 153.438 287.658L118.866 287.538Z" fill="white"/>
</g>
<path d="M135.948 277.488C135.948 277.656 135.096 277.728 134.262 278.268C133.428 278.808 132.984 279.516 132.828 279.468C132.672 279.42 132.93 278.424 133.95 277.788C134.97 277.152 135.984 277.332 135.948 277.488Z" fill="#263238"/>
<path d="M139.566 279C139.602 279.162 138.87 279.444 138.294 280.158C137.718 280.872 137.55 281.628 137.382 281.616C137.214 281.604 137.112 280.656 137.844 279.78C138.576 278.904 139.566 278.838 139.566 279Z" fill="#263238"/>
<path d="M141.6 283.344C141.444 283.38 141.216 282.534 141.648 281.616C142.08 280.698 142.878 280.326 142.95 280.464C143.022 280.602 142.53 281.1 142.182 281.862C141.834 282.624 141.78 283.332 141.6 283.344Z" fill="#263238"/>
<path d="M135.654 273.408C135.582 273.564 134.808 273.33 133.854 273.408C132.9 273.486 132.156 273.768 132.054 273.624C131.952 273.48 132.654 272.88 133.812 272.82C134.97 272.76 135.738 273.276 135.654 273.408Z" fill="#263238"/>
<path d="M94.6681 172.65C94.6681 172.65 136.11 183.45 141.258 190.596C145.602 196.662 122.79 258.6 122.79 258.6L104.79 257.046L112.554 205.218L66.1201 190.458L73.1341 172.626L94.6681 172.65Z" fill="#263238"/>
<path d="M97.6382 182.358C97.6382 182.358 140.004 192.648 144.288 199.962C146.286 203.376 144.972 214.584 144.228 219.876C143.724 223.44 136.236 273.312 136.236 273.312H117.918L118.32 216.984L74.3042 208.11C74.3042 208.11 50.6762 209.91 49.7522 199.83L59.6162 186.462L82.8962 174.96L97.6382 182.358Z" fill="#263238"/>
<path d="M94.4101 181.062C94.4101 181.062 94.6201 181.11 95.0101 181.224L96.8101 181.722L103.722 183.654C106.722 184.494 110.394 185.52 114.636 186.78C118.878 188.04 123.684 189.564 128.898 191.538C131.51 192.514 134.206 193.626 136.986 194.874L139.086 195.822C139.794 196.168 140.483 196.55 141.15 196.968C141.833 197.396 142.477 197.881 143.076 198.42C143.698 198.967 144.22 199.619 144.618 200.346C146.046 206.838 145.182 213.936 144.12 221.19C143.658 224.844 143.064 228.57 142.506 232.38C141.948 236.19 141.354 240.09 140.76 244.05C139.56 251.976 138.36 260.184 137.088 268.584C136.848 270.174 136.614 271.758 136.374 273.33V273.468H117.774V273.312C117.936 251.964 118.086 232.632 118.206 216.99L118.302 217.104L87.0001 210.738L78.4621 208.986L76.2421 208.524C75.7381 208.416 75.4861 208.35 75.4861 208.35L76.2481 208.488L78.4801 208.92L87.0541 210.6L118.344 216.852H118.44V216.954C118.338 232.596 118.212 251.928 118.074 273.282L117.918 273.126H136.23L136.08 273.258C136.314 271.68 136.554 270.102 136.788 268.512L140.466 243.978C141.066 240.01 141.65 236.12 142.218 232.308C142.782 228.498 143.382 224.772 143.85 221.118C144.098 219.294 144.34 217.494 144.576 215.718C144.829 213.97 144.985 212.209 145.044 210.444C145.104 208.704 145.104 206.99 145.044 205.302C145.008 204.456 144.96 203.622 144.888 202.794C144.881 201.982 144.716 201.179 144.402 200.43C144.021 199.73 143.519 199.102 142.92 198.576C142.335 198.048 141.704 197.572 141.036 197.154C140.378 196.736 139.697 196.355 138.996 196.014L136.908 195.06C134.136 193.818 131.442 192.696 128.838 191.718C123.636 189.732 118.83 188.214 114.6 186.918C110.37 185.622 106.698 184.602 103.704 183.744L96.8041 181.8L95.0041 181.272C94.6141 181.134 94.4101 181.062 94.4101 181.062Z" fill="#455A64"/>
<path d="M153.084 155.586C153.354 155.178 156.852 151.14 157.794 151.14C158.736 151.14 159.816 152.22 159.816 152.22C160.446 151.931 161.148 151.837 161.832 151.95C162.642 152.22 166.41 155.448 166.41 156.66V158.682C166.495 159.217 166.495 159.761 166.41 160.296C166.278 161.238 164.01 162.852 164.01 162.852H151.068C151.068 162.852 148.602 161.19 148.908 159.624C149.214 158.058 153.084 155.586 153.084 155.586Z" fill="#FFBE9D"/>
<path d="M159.816 152.22C160.097 152.348 160.366 152.501 160.62 152.676L162.756 154.026C163.003 154.169 163.24 154.33 163.464 154.506C163.702 154.726 163.882 155.003 163.986 155.31C164.068 155.635 164.106 155.97 164.1 156.306L164.154 157.338C164.226 158.748 164.298 160.296 164.376 161.916L164.412 162.648V162.78L164.286 162.81L163.494 163.002H163.458C163.088 162.991 162.731 162.858 162.444 162.624C162.18 162.405 161.958 162.138 161.79 161.838C161.486 161.292 161.258 160.706 161.112 160.098C160.86 159.081 160.712 158.042 160.668 156.996L160.74 157.092L158.478 156.204C158.198 156.106 157.927 155.983 157.668 155.838C157.959 155.897 158.244 155.981 158.52 156.09L160.812 156.888H160.878V156.96C160.948 157.989 161.114 159.01 161.376 160.008C161.523 160.587 161.747 161.144 162.042 161.664C162.171 161.938 162.369 162.174 162.616 162.35C162.863 162.525 163.151 162.634 163.452 162.666H163.416L164.208 162.468L164.088 162.63L164.052 161.892C163.986 160.272 163.914 158.73 163.854 157.314C163.854 156.96 163.854 156.618 163.818 156.282C163.824 155.97 163.794 155.657 163.728 155.352C163.645 155.084 163.494 154.842 163.29 154.65C163.077 154.478 162.855 154.318 162.624 154.17L160.542 152.742C160.286 152.589 160.043 152.414 159.816 152.22Z" fill="#EB996E"/>
<path d="M151.068 162.39C151.353 162.329 151.642 162.291 151.932 162.276L154.29 162.09H154.326C155.203 162.296 156.09 162.456 156.984 162.57C157.499 162.64 158.018 162.682 158.538 162.696C158.791 162.737 159.049 162.722 159.295 162.652C159.541 162.581 159.768 162.457 159.96 162.288C160.121 162.059 160.199 161.782 160.182 161.502C160.182 161.208 160.14 160.902 160.128 160.59C160.094 160.336 159.97 160.102 159.78 159.93C159.591 159.74 159.374 159.578 159.138 159.45C158.282 159.019 157.318 158.848 156.366 158.958C156.025 158.99 155.681 158.94 155.363 158.813C155.045 158.686 154.761 158.484 154.536 158.226C154.254 157.824 154.278 157.53 154.296 157.536C154.375 157.753 154.489 157.955 154.632 158.136C154.857 158.361 155.13 158.531 155.43 158.635C155.73 158.739 156.051 158.774 156.366 158.736C157.36 158.588 158.375 158.747 159.276 159.192C159.538 159.331 159.778 159.507 159.99 159.714C160.24 159.94 160.398 160.249 160.434 160.584C160.434 160.86 160.494 161.184 160.494 161.496C160.51 161.848 160.407 162.195 160.2 162.48C159.991 162.722 159.705 162.885 159.39 162.942C159.107 162.995 158.819 163.013 158.532 162.996C157.98 162.996 157.452 162.924 156.948 162.858C156.044 162.728 155.149 162.546 154.266 162.312H154.302L151.944 162.396C151.653 162.425 151.359 162.423 151.068 162.39Z" fill="#EB996E"/>
<path d="M164.238 162.336C164.538 161.534 164.887 160.75 165.282 159.99C165.586 159.183 165.989 158.418 166.482 157.71C166.275 158.543 165.971 159.348 165.576 160.11C165.27 160.928 164.817 161.682 164.238 162.336Z" fill="#EB996E"/>
<path d="M136.2 165.066L182.814 165.666L197.814 123.582C197.974 123.161 197.967 122.694 197.794 122.278C197.621 121.862 197.296 121.528 196.884 121.344C196.662 121.241 196.422 121.185 196.178 121.18C195.933 121.175 195.691 121.221 195.465 121.315C195.24 121.408 195.036 121.548 194.867 121.724C194.698 121.901 194.568 122.11 194.484 122.34L179.694 162.192L136.158 162.624C135.84 162.624 135.535 162.75 135.31 162.975C135.084 163.201 134.958 163.506 134.958 163.824C134.952 163.989 134.98 164.153 135.041 164.306C135.101 164.46 135.192 164.599 135.309 164.715C135.425 164.832 135.565 164.923 135.718 164.983C135.871 165.044 136.035 165.072 136.2 165.066Z" fill="#263238"/>
<path d="M66.738 133.8C66.738 133.8 89.538 164.796 93.072 164.796H126.342V152.196L101.184 146.262C101.184 146.262 88.8 120.642 86.052 117.36C83.304 114.078 75.978 109.656 70.5 114.6C65.022 119.544 66.738 133.8 66.738 133.8Z" fill="#5A1236"/>
<path d="M126.318 153.438L131.772 153C131.772 153 131.886 150.978 133.08 150.264C134.274 149.55 134.148 148.002 134.88 148.122C135.276 148.2 135.684 148.2 136.08 148.122L140.598 144.318L144.408 141.822L147.408 141.222C147.408 141.222 149.208 141.696 147.408 143.358L145.5 144.432L143.838 146.1L147.642 144.228C147.817 144.144 148.009 144.1 148.203 144.1C148.397 144.1 148.589 144.144 148.764 144.228C149.793 144.673 150.775 145.222 151.692 145.866C151.774 145.943 151.84 146.036 151.884 146.139C151.929 146.242 151.952 146.354 151.952 146.466C151.952 146.578 151.929 146.69 151.884 146.793C151.84 146.896 151.774 146.989 151.692 147.066L153.354 148.494C153.354 148.494 153.714 150.402 151.806 149.922L150.264 149.568L148.2 151.572C148.2 151.572 155.106 150.144 155.58 150.372C156.054 150.6 156.654 151.68 155.58 152.628C154.506 153.576 150.342 153.342 149.394 154.296C148.446 155.25 142.146 160.998 140.598 161.352C139.05 161.706 126.354 164.808 126.354 164.808L126.318 153.438Z" fill="#FFBE9D"/>
<path d="M153.306 148.476C152.98 148.277 152.667 148.056 152.37 147.816C152.088 147.606 151.77 147.36 151.362 147.096C151.17 146.964 150.97 146.832 150.762 146.7C150.575 146.562 150.356 146.473 150.126 146.442C149.653 146.544 149.204 146.733 148.8 147C148.392 147.222 148.032 147.432 147.726 147.6C147.412 147.821 147.074 148.006 146.718 148.152C146.97 147.861 147.268 147.614 147.6 147.42C147.894 147.216 148.248 146.982 148.656 146.742C148.86 146.622 149.076 146.502 149.304 146.382C149.552 146.239 149.829 146.153 150.114 146.13C150.197 146.113 150.283 146.113 150.366 146.13C150.436 146.153 150.504 146.181 150.57 146.214C150.692 146.273 150.81 146.339 150.924 146.412C151.146 146.55 151.35 146.688 151.524 146.832C151.902 147.108 152.232 147.378 152.502 147.612C153.048 148.104 153.342 148.446 153.306 148.476Z" fill="#EB996E"/>
<path d="M136.596 147.66C136.644 147.732 136.08 148.224 135.396 148.86C134.712 149.496 134.196 150.024 134.13 149.958C134.383 149.447 134.741 148.995 135.18 148.632C135.565 148.197 136.051 147.863 136.596 147.66Z" fill="#EB996E"/>
<path d="M86.0522 117.36C86.5414 117.963 86.9827 118.603 87.3722 119.274C88.1582 120.576 89.2682 122.52 90.6002 125.034C93.2822 130.062 96.9722 137.352 101.298 146.226L101.214 146.154L126.378 152.07H126.498V165H124.836H96.5582H93.3422C93.2023 165.008 93.062 165.008 92.9222 165C92.7807 164.972 92.6435 164.926 92.5142 164.862C92.2628 164.73 92.0238 164.575 91.8002 164.4C91.382 164.088 90.9814 163.754 90.6002 163.398C89.1428 162.026 87.7589 160.578 86.4542 159.06C83.8982 156.156 81.6542 153.354 79.5842 150.786C75.4922 145.638 72.2942 141.384 70.0982 138.444L67.5842 135.036C67.3082 134.646 67.0982 134.352 66.9422 134.142C66.7862 133.932 66.7322 133.83 66.7322 133.83C66.7322 133.83 66.8162 133.926 66.9722 134.124L67.6382 135L70.2002 138.36C72.4262 141.282 75.6542 145.512 79.7642 150.642C81.8222 153.198 84.0962 155.988 86.6522 158.886C87.9571 160.39 89.3389 161.826 90.7922 163.188C91.1729 163.537 91.5736 163.863 91.9922 164.166C92.1969 164.314 92.4137 164.444 92.6402 164.556C92.862 164.663 93.1091 164.707 93.3542 164.682H96.5702H124.848H126.354L126.198 164.838C126.198 160.518 126.198 156.294 126.198 152.238L126.312 152.388L101.154 146.4H101.094L101.064 146.346C96.7682 137.46 93.1082 130.146 90.4682 125.112C89.1542 122.586 88.0682 120.636 87.3002 119.322C86.9102 118.674 86.6162 118.17 86.3822 117.858C86.1482 117.546 86.0522 117.36 86.0522 117.36Z" fill="#263238"/>
<path d="M82.7402 115.332C82.7402 115.386 81.9602 115.074 80.6882 114.786C79.9409 114.62 79.1831 114.506 78.4202 114.444C77.4876 114.372 76.5508 114.372 75.6182 114.444C74.6882 114.542 73.7674 114.712 72.8642 114.954C72.1256 115.156 71.4019 115.408 70.6982 115.71C69.4982 116.232 68.8142 116.676 68.7842 116.628C68.9195 116.492 69.073 116.375 69.2402 116.28C69.6774 115.992 70.1345 115.735 70.6082 115.512C71.3105 115.174 72.0389 114.893 72.7862 114.672C73.7022 114.41 74.64 114.231 75.5882 114.138C76.5382 114.051 77.4942 114.051 78.4442 114.138C79.2196 114.217 79.9878 114.356 80.7422 114.552C81.2477 114.684 81.743 114.853 82.2242 115.056C82.5662 115.2 82.7522 115.308 82.7402 115.332Z" fill="#263238"/>
<path d="M96.6001 152.016C96.9716 150.939 97.5483 149.945 98.2981 149.088C98.9651 148.163 99.807 147.379 100.776 146.778C100.836 146.85 99.6841 147.834 98.5381 149.28C97.3921 150.726 96.6901 152.058 96.6001 152.016Z" fill="#263238"/>
<path d="M95.8381 148.152C97.1133 147.023 98.7741 146.428 100.476 146.49C100.476 146.586 99.3781 146.7 98.0761 147.168C96.7741 147.636 95.8921 148.23 95.8381 148.152Z" fill="#263238"/>
<path d="M117.216 212.856C116.736 211.854 115.572 211.416 114.51 211.056C93.5521 204.3 71.0641 201.06 49.3981 204.996C46.7941 205.47 44.1061 206.088 42.0361 207.744C39.9661 209.4 38.7241 212.4 39.8281 214.8L44.2741 216.228C66.4591 213.758 88.858 213.916 111.006 216.696C112.5 216.888 114.072 217.074 115.452 216.486C116.832 215.898 117.87 214.2 117.216 212.856Z" fill="#455A64"/>
<path d="M92.8981 205.926C92.8505 205.935 92.8017 205.935 92.7541 205.926L92.3521 205.872L90.7981 205.644C89.4541 205.428 87.5041 205.116 85.0801 204.84C78.777 204.095 72.4295 203.792 66.0841 203.934C64.2301 203.97 62.4181 204.06 60.6841 204.204C58.9501 204.348 57.2581 204.432 55.6441 204.576C55.4444 204.592 55.2438 204.592 55.0441 204.576C54.8565 204.558 54.6677 204.558 54.4801 204.576C54.1003 204.602 53.7231 204.658 53.3521 204.744L51.1801 205.2C49.7821 205.512 48.4981 205.854 47.3401 206.238C45.5109 206.808 43.7641 207.615 42.1441 208.638C41.5441 209.004 41.1481 209.322 40.8661 209.544L40.5421 209.79C40.4701 209.844 40.4281 209.874 40.4221 209.868L40.5181 209.766L40.8241 209.496C41.2232 209.152 41.6419 208.832 42.0781 208.536C43.6855 207.459 45.434 206.609 47.2741 206.01C48.5371 205.586 49.8208 205.225 51.1201 204.93L53.2981 204.462C53.6916 204.363 54.0933 204.301 54.4981 204.276C54.6977 204.259 54.8985 204.259 55.0981 204.276C55.2975 204.299 55.4988 204.299 55.6981 204.276C57.2881 204.126 58.9921 204.024 60.7381 203.886C62.4841 203.748 64.3381 203.646 66.1381 203.61C72.478 203.466 78.8197 203.796 85.1101 204.6C87.5101 204.906 89.4781 205.254 90.8161 205.506L92.3641 205.794L92.7601 205.878L92.8981 205.926Z" fill="#263238"/>
<path d="M40.3741 171.774L76.0981 173.022C76.2225 173.027 76.3446 173.057 76.4564 173.112C76.5682 173.167 76.6672 173.245 76.747 173.341C76.8268 173.436 76.8855 173.547 76.9195 173.667C76.9534 173.787 76.9618 173.913 76.9441 174.036L71.8021 216.876H79.8541L84.0061 169.716C84.0529 169.335 84.0201 168.949 83.9098 168.582C83.7994 168.215 83.614 167.875 83.3652 167.583C83.1164 167.291 82.8096 167.055 82.4645 166.888C82.1193 166.721 81.7432 166.628 81.3601 166.614L39.4141 165.114L40.3741 171.774Z" fill="#455A64"/>
<path d="M230.232 168.654H224.634V169.896L236.958 287.694H242.706L230.232 168.654Z" fill="#455A64"/>
<path d="M105.252 168.654H110.85V169.92L99.3601 287.658H93.6121L105.252 168.654Z" fill="#455A64"/>
<path d="M105.252 168.654C105.252 168.654 105.252 168.864 105.204 169.254C105.156 169.644 105.108 170.268 105.036 171.054C104.886 172.632 104.67 174.96 104.388 177.948C103.788 183.948 102.978 192.606 101.952 203.346C99.8639 224.802 96.978 254.532 93.762 287.652L93.612 287.478H99.36L99.2039 287.622C104.652 232.314 109.266 185.46 110.802 169.896C110.802 169.296 110.802 168.96 110.802 168.63L110.844 168.672H106.644H105.612H105.27H105.6H106.62L110.868 168.642H110.91V168.69C110.91 169.02 110.91 169.368 110.91 169.956C109.404 185.52 104.874 232.356 99.51 287.7V287.844H93.45V287.67C96.714 254.514 99.648 224.748 101.766 203.268C102.84 192.546 103.698 183.894 104.298 177.912C104.598 174.912 104.832 172.632 104.988 171.054C105.072 170.28 105.132 169.686 105.174 169.254C105.216 168.822 105.252 168.654 105.252 168.654Z" fill="#263238"/>
<path d="M251.994 164.82H91.782V169.89H251.994V164.82Z" fill="#455A64"/>
<path d="M234.936 169.896C234.936 169.98 203.004 170.052 163.626 170.052C124.248 170.052 92.304 169.98 92.304 169.896C92.304 169.812 124.23 169.74 163.626 169.74C203.022 169.74 234.936 169.8 234.936 169.896Z" fill="#263238"/>
</svg>
